<?xml version="1.0" standalone="no"?>
<!DOCTYPE svg PUBLIC "-//W3C//DTD SVG 1.1//EN" "http://www.w3.org/Graphics/SVG/1.1/DTD/svg11.dtd" >
<svg>
<metadata>
Created by FontForge 20090622 at Mon Mar 18 03:15:49 2019
 By deploy user
Copyright 2017 Google Inc. All Rights Reserved.
</metadata>
<defs>
<font id="NotoSansLao-Medium" horiz-adv-x="0" >
  <font-face 
    font-family="Noto Sans Lao Med"
    font-weight="500"
    font-stretch="normal"
    units-per-em="1000"
    panose-1="2 11 6 2 4 5 4 2 2 4"
    ascent="800"
    descent="-200"
    bbox="-624 -442 917 1120"
    underline-thickness="50"
    underline-position="-75"
    unicode-range="U+000D-U+25CC"
  />
<missing-glyph horiz-adv-x="503" 
d="M51 0v714h400v-714h-400zM99 48h304v618h-304v-618z" />
    <glyph glyph-name=".notdef" horiz-adv-x="503" 
d="M51 0v714h400v-714h-400zM99 48h304v618h-304v-618z" />
    <glyph glyph-name="NULL" 
 />
    <glyph glyph-name="NULL" 
 />
    <glyph glyph-name="CR" unicode="&#xd;" horiz-adv-x="260" 
 />
    <glyph glyph-name="space" unicode=" " horiz-adv-x="260" 
 />
    <glyph glyph-name="koKai-lao" unicode="&#xe81;" horiz-adv-x="620" 
d="M104 -7q-19 0 -41.5 4.5t-41.5 12.5l15 73q18 -6 35 -6t27 8.5t10 30.5v240q0 54 -16.5 88t-40.5 56l73 59q15 -12 32 -34.5t25 -45.5h3q34 43 77.5 61.5t94.5 18.5q92 0 140 -52.5t48 -150.5v-356h-106v347q0 60 -24.5 93t-81.5 33q-28 0 -55 -10t-44.5 -35.5
t-17.5 -71.5v-241q0 -58 -29.5 -90t-81.5 -32z" />
    <glyph glyph-name="khoKhai-lao" unicode="&#xe82;" horiz-adv-x="611" 
d="M200 -10q-36 0 -68 12.5t-52 39t-20 68.5q0 40 18.5 68t50 47.5t70.5 34l80 28.5q49 16 85.5 29t56 30t19.5 46q0 43 -39 62.5t-95 19.5q-58 0 -97.5 -20.5t-39.5 -63.5q0 -14 4.5 -24t11.5 -19l-82 -41q-18 14 -27.5 38t-9.5 50q0 43 25 80.5t78 60.5t136 23t136 -22.5
t78 -60.5t25 -82q0 -54 -32 -86.5t-83 -54t-108 -40.5l-75 -25.5t-59 -29t-23 -41.5q0 -18 12.5 -31t35.5 -13q22 0 48 10.5t55.5 24.5t60.5 24.5t64 10.5q44 0 74 -26t30 -87v-30h-99v21q0 34 -32 34q-19 0 -41 -10l-47.5 -22.5t-56.5 -22.5t-68 -10z" />
    <glyph glyph-name="khoKhuay-lao" unicode="&#xe84;" horiz-adv-x="612" 
d="M227 -10q-60 0 -96.5 22t-53 57t-16.5 73q0 45 22.5 80t70.5 49v2q-43 15 -68 45.5t-25 78.5q0 74 62 118t180 44q115 0 174.5 -47.5t59.5 -153.5v-358h-107v367q0 51 -30.5 78.5t-102.5 27.5q-62 0 -96 -21.5t-34 -61.5q0 -39 29.5 -60t76.5 -21h26v-73h-26
q-48 0 -77 -19t-29 -63q0 -36 20.5 -57t59.5 -21q16 0 31.5 3t26.5 7l18 -80q-17 -7 -43 -11.5t-53 -4.5z" />
    <glyph glyph-name="ngoNgu-lao" unicode="&#xe87;" horiz-adv-x="377" 
d="M120 -177q-46 0 -84 10t-62 21v88q31 -15 62.5 -24t63.5 -9q50 0 72.5 23.5t22.5 68.5v414q0 28 -20.5 43t-54.5 15q-39 0 -73 -16l-21 74q59 28 126 28t108.5 -30.5t41.5 -86.5v-449q0 -85 -48 -127.5t-134 -42.5z" />
    <glyph glyph-name="coCok-lao" unicode="&#xe88;" horiz-adv-x="566" 
d="M193 0l-33 201q-4 23 -15 32t-30 9q-21 0 -36 -6l-16 73q19 10 41 14t41 4q43 0 72 -23t39 -86l21 -134q57 4 86.5 50.5t29.5 141.5q0 106 -40 151.5t-131 45.5q-44 0 -90.5 -10.5t-88.5 -33.5v89q32 16 83.5 28.5t112.5 12.5q137 0 198.5 -72.5t61.5 -212.5
q0 -130 -55.5 -202t-187.5 -72h-63z" />
    <glyph glyph-name="soSang-lao" unicode="&#xe8a;" horiz-adv-x="611" 
d="M445 -177v197q0 34 -32 34q-19 0 -41 -9.5t-48 -22.5t-57 -22.5t-67 -9.5t-68 12.5t-52 39t-20 68.5q0 40 18.5 68t50 47.5t70.5 34l80 28.5q49 16 85.5 29t56 30t19.5 46q0 43 -39 62.5t-95 19.5q-58 0 -97.5 -20.5t-39.5 -63.5q0 -14 4.5 -24t11.5 -19l-82 -41
q-18 14 -27.5 38t-9.5 50q0 43 25 80.5t78 60.5t136 23t136 -22.5t78 -60.5t25 -82q0 -54 -32 -87t-83 -54t-108 -40l-75 -25.5t-59 -29t-23 -41.5q0 -18 12.5 -31t35.5 -13q22 0 48 10.5t55.5 24.5t60.5 24.5t64 10.5q44 0 74 -26t30 -87v-207h-99z" />
    <glyph glyph-name="nyoNyung-lao" unicode="&#xe8d;" horiz-adv-x="611" 
d="M300 -10q-118 0 -179 46t-61 126q0 60 29 90t64 37v4q-34 11 -63.5 41.5t-29.5 84.5q0 35 16.5 67.5t52.5 52.5t95 20q28 0 54.5 -4.5t43.5 -12.5l-18 -79q-10 4 -27 7t-35 3q-38 0 -57 -18t-19 -50q0 -30 15.5 -46.5t40 -23t50.5 -6.5h50v-73h-50q-106 0 -106 -85
q0 -46 32.5 -70.5t101.5 -24.5q67 0 98 25t31 81v367h107v-357q0 -106 -60.5 -154t-175.5 -48z" />
    <glyph glyph-name="doDek-lao" unicode="&#xe94;" horiz-adv-x="633" 
d="M264 -10q-75 0 -121.5 34.5t-67.5 96t-21 141.5q0 105 32.5 170.5t92 96t138.5 30.5q111 0 175.5 -54.5t64.5 -158.5v-346h-106v346q0 60 -33 93.5t-102 33.5q-80 0 -118 -50t-38 -159q0 -191 122 -191q26 0 50 8l13 -78q-17 -7 -38 -10t-43 -3z" />
    <glyph glyph-name="toTa-lao" unicode="&#xe95;" horiz-adv-x="644" 
d="M264 -10q-112 0 -161 77t-49 210q0 99 22.5 161t61 91.5t85.5 29.5q41 0 65 -18.5t35 -46.5h3q13 29 41 47t70 18q67 0 99.5 -45.5t32.5 -124.5v-389h-107v382q0 43 -12 67t-39 24q-26 0 -39.5 -20.5t-17.5 -50.5h-59q-4 32 -16.5 51.5t-35.5 19.5q-35 0 -59 -46.5
t-24 -149.5t29 -153.5t93 -50.5q26 0 50 8l13 -78q-17 -7 -38 -10t-43 -3z" />
    <glyph glyph-name="thoThong-lao" unicode="&#xe96;" horiz-adv-x="620" 
d="M438 -177v525q0 59 -29 92t-86 33q-27 0 -53.5 -10t-44 -35.5t-17.5 -71.5v-243q0 -40 38 -40q8 0 17 2t17 5l16 -73q-40 -17 -83 -17q-53 0 -82.5 32t-29.5 90v244q0 54 -16.5 88t-40.5 56l73 59q15 -12 32 -34.5t25 -45.5h3q35 46 80 63t92 17q91 0 143.5 -52.5
t52.5 -150.5v-533h-107z" />
    <glyph glyph-name="thoThung-lao" unicode="&#xe97;" horiz-adv-x="725" 
d="M244 -10q-93 0 -132.5 50t-39.5 130v379h105v-384q0 -42 14.5 -65.5t52.5 -23.5q37 0 52 23.5t15 65.5v214q0 53 16 93.5t52.5 63.5t98.5 23q93 0 132.5 -50.5t39.5 -129.5v-379h-105v384q0 42 -15 65.5t-52 23.5q-38 0 -52.5 -23.5t-14.5 -65.5v-214q0 -53 -16 -93.5
t-52.5 -63.5t-98.5 -23z" />
    <glyph glyph-name="noNok-lao" unicode="&#xe99;" horiz-adv-x="616" 
d="M124 -10l-77 59q24 22 40.5 56t16.5 88v243q0 40 -36 40q-9 0 -18 -2.5t-17 -4.5l-16 73q20 8 44 12.5t45 4.5q53 0 79 -31.5t26 -89.5v-245q0 -55 30 -86t82 -31q53 0 82 33t29 93v347h107v-351q0 -97 -50.5 -152.5t-145.5 -55.5q-106 0 -164 80h-3q-9 -22 -24 -45
t-30 -35z" />
    <glyph glyph-name="boBae-lao" unicode="&#xe9a;" horiz-adv-x="612" 
d="M304 -10q-122 0 -177 58.5t-55 163.5v337h107v-346q0 -61 29.5 -94t95.5 -33q67 0 96.5 33t29.5 94v346h107v-337q0 -105 -55.5 -163.5t-177.5 -58.5z" />
    <glyph glyph-name="poPa-lao" unicode="&#xe9b;" horiz-adv-x="615" 
d="M306 -10q-122 0 -178 58.5t-56 163.5v337h107v-346q0 -61 30 -94t97 -33t96.5 33t29.5 94v511h107v-502q0 -105 -55.5 -163.5t-177.5 -58.5z" />
    <glyph glyph-name="phoPhueng-lao" unicode="&#xe9c;" horiz-adv-x="721" 
d="M224 -10q-77 0 -114.5 46t-37.5 125v274q0 59 30 91.5t83 32.5q19 0 40.5 -4.5t41.5 -12.5l-15 -73q-9 2 -18.5 4.5t-17.5 2.5q-16 0 -27.5 -10t-11.5 -32v-285q0 -38 16 -55.5t49 -17.5q39 0 54 22t15 64v167h96v-167q0 -42 14.5 -64t53.5 -22q33 0 49 17.5t16 55.5v192
q0 84 -63 84h-13v69h14q37 0 49.5 23.5t12.5 61.5v9h106v-9q0 -41 -14 -69t-49 -48v-4q35 -16 48.5 -43.5t13.5 -70.5v-184q0 -78 -36.5 -124t-114.5 -46q-48 0 -80.5 17.5t-53.5 47.5h-3q-20 -30 -52.5 -47.5t-80.5 -17.5z" />
    <glyph glyph-name="foFon-lao" unicode="&#xe9d;" horiz-adv-x="722" 
d="M224 -10q-77 0 -114.5 46t-37.5 125v274q0 59 30 91.5t83 32.5q19 0 40.5 -4.5t41.5 -12.5l-15 -73q-9 2 -18.5 4.5t-17.5 2.5q-16 0 -27.5 -10t-11.5 -32v-285q0 -38 16 -55.5t49 -17.5q39 0 54 22t15 64v167h96v-167q0 -42 14.5 -64t53.5 -22q33 0 49 17.5t16 55.5v565
h105v-554q0 -78 -36.5 -124t-114.5 -46q-48 0 -80.5 17.5t-53.5 47.5h-3q-20 -30 -52.5 -47.5t-80.5 -17.5z" />
    <glyph glyph-name="phoPhu-lao" unicode="&#xe9e;" horiz-adv-x="729" 
d="M223 -10q-69 0 -110 43t-41 129v387h105v-392q0 -81 67 -81q71 0 71 84v389h96v-389q0 -84 71 -84q67 0 67 81v392h105v-387q0 -86 -41 -129t-110 -43q-51 0 -86 20.5t-51 50.5h-6q-16 -30 -51.5 -50.5t-85.5 -20.5z" />
    <glyph glyph-name="foFai-lao" unicode="&#xe9f;" horiz-adv-x="730" 
d="M223 -10q-69 0 -110 43t-41 129v387h105v-392q0 -81 67 -81q71 0 71 84v389h96v-389q0 -84 71 -84q67 0 67 81v557h105v-552q0 -86 -41 -129t-110 -43q-51 0 -86 20.5t-51 50.5h-6q-16 -30 -51.5 -50.5t-85.5 -20.5z" />
    <glyph glyph-name="moMa-lao" unicode="&#xea1;" horiz-adv-x="618" 
d="M101 -11q-23 0 -43.5 4.5t-38.5 12.5l16 73q8 -3 17 -5t17 -2q17 0 27 9t10 31v437h107v-356q0 -46 16.5 -71.5t42 -35.5t53.5 -10q57 0 84 33t27 93v347h107v-355q0 -98 -50.5 -151t-145.5 -53q-47 0 -83.5 14.5t-66.5 47.5h-3q-4 -31 -28.5 -47t-64.5 -16z" />
    <glyph glyph-name="yoYa-lao" unicode="&#xea2;" horiz-adv-x="616" 
d="M302 -10q-119 0 -180.5 46t-61.5 126q0 62 29.5 91.5t63.5 35.5v4q-34 11 -63.5 41.5t-29.5 84.5q0 35 16.5 67.5t52.5 52.5t95 20q28 0 54.5 -4.5t43.5 -12.5l-18 -79q-10 4 -27 7t-35 3q-38 0 -57 -18t-19 -50q0 -30 15.5 -46.5t40 -23t50.5 -6.5h50v-73h-50
q-106 0 -106 -85q0 -44 32 -69.5t103 -25.5q67 0 100 25t33 81v532h106v-522q0 -106 -61.5 -154t-176.5 -48z" />
    <glyph glyph-name="roRot-lao" unicode="&#xea3;" horiz-adv-x="609" 
d="M304 -10q-86 0 -140 23t-79 60t-25 80q0 33 12 53.5t24 31.5l84 -38q-16 -14 -16 -44q0 -32 19 -49.5t50 -24.5t67 -7q62 0 101.5 20t39.5 67q0 33 -19.5 52.5t-56 32.5t-87.5 25l-79 20.5t-70.5 26.5t-50 42t-18.5 67q0 72 61 101.5t163 29.5q62 0 125 -10t116 -31v-84
q-59 21 -114.5 30t-116.5 9q-66 0 -98 -10.5t-32 -38.5q0 -32 40 -45t112 -30q42 -10 82.5 -22.5t73.5 -32.5t52.5 -51.5t19.5 -78.5q0 -75 -57.5 -124.5t-182.5 -49.5z" />
    <glyph glyph-name="loLing-lao" unicode="&#xea5;" horiz-adv-x="631" 
d="M180 -10q-67 0 -99.5 40.5t-32.5 109.5q0 75 38 122.5t121 47.5q61 0 95 -26.5t47 -72.5l35 -115q10 -31 36 -31q31 0 31 36v246q0 65 -47.5 95.5t-123.5 30.5q-47 0 -103.5 -11t-97.5 -31v87q23 10 58 19.5t76.5 15.5t83.5 6q73 0 132 -21.5t93 -66t34 -113.5v-244
q0 -63 -37 -93.5t-97 -30.5q-52 0 -81 22.5t-42 66.5l-33 102q-13 46 -61 46q-30 0 -47.5 -20t-17.5 -64q0 -75 58 -75q17 0 32 5l16 -71q-11 -5 -28.5 -8.5t-37.5 -3.5z" />
    <glyph glyph-name="woWi-lao" unicode="&#xea7;" horiz-adv-x="585" 
d="M268 -10q-68 0 -120.5 20t-82 58t-29.5 92q0 21 5 37.5t12 29.5l92 -27q-4 -8 -6.5 -17t-2.5 -20q0 -40 32.5 -64t92.5 -24q73 0 113.5 44.5t40.5 152.5q0 78 -21 122t-60.5 61.5t-92.5 17.5q-48 0 -93.5 -11.5t-89.5 -32.5v89q37 17 87 29t110 12q78 0 138.5 -26
t94.5 -88t34 -170q0 -106 -33 -168.5t-90 -89.5t-131 -27z" />
    <glyph glyph-name="soSeua-lao" unicode="&#xeaa;" horiz-adv-x="640" 
d="M189 -10q-71 0 -103 42t-32 104q0 41 15 75.5t49.5 55.5t91.5 21q62 0 100 -25.5t51 -70.5l29 -96q10 -31 38 -31q30 0 30 36v242q0 20 -4 37q-39 -22 -88 -35t-105 -13q-57 0 -101.5 13t-70.5 38.5t-26 62.5q0 48 50 80.5t158 32.5q64 0 113.5 -12t84.5 -34q9 22 9 45v8
h94v-8q0 -57 -37 -108q28 -45 28 -104v-232q0 -63 -35.5 -93.5t-96.5 -30.5q-51 0 -81 21.5t-43 62.5l-29 91q-7 24 -24.5 36t-43.5 12q-31 0 -48.5 -17.5t-17.5 -57.5q0 -70 59 -70q8 0 16 1.5t16 3.5l17 -71q-13 -5 -29 -8.5t-34 -3.5zM151 444q0 -23 32.5 -32.5
t74.5 -9.5q51 0 89.5 11.5t66.5 31.5q-27 22 -66.5 32.5t-85.5 10.5q-48 0 -79.5 -11t-31.5 -33z" />
    <glyph glyph-name="hoHaan-lao" unicode="&#xeab;" horiz-adv-x="726" 
d="M243 -10q-90 0 -130.5 47.5t-40.5 124.5v387h105v-395q0 -78 67 -78t67 78v266q0 27 -9 48.5t-34 39.5l74 51q36 -18 55 -60h3q22 26 54 43t73 17q58 0 90.5 -37.5t32.5 -104.5v-417h-105v400q0 73 -64 73q-37 0 -53.5 -22.5t-16.5 -56.5v-232q0 -77 -39 -124.5
t-129 -47.5z" />
    <glyph glyph-name="oO-lao" unicode="&#xead;" horiz-adv-x="616" 
d="M301 -10q-69 0 -123.5 20.5t-86 58t-31.5 88.5q0 21 5 35t13 25l86 -25q-4 -8 -6 -16t-2 -14q0 -27 20.5 -46.5t53.5 -30t70 -10.5q159 0 159 196v8q-40 -22 -87.5 -33t-95.5 -11q-102 0 -159 43.5t-57 114.5q0 72 58.5 119t169.5 47q79 0 141.5 -28.5t98.5 -92.5
t36 -168q0 -101 -34 -162.5t-93 -89.5t-136 -28zM158 391q0 -36 33 -56.5t92 -20.5q39 0 83 10.5t82 35.5q-32 113 -160 113q-56 0 -93 -21t-37 -61z" />
    <glyph glyph-name="hoHeuan-lao" unicode="&#xeae;" horiz-adv-x="609" 
d="M300 -10q-121 0 -180.5 46t-59.5 115q0 32 11 53t26 34l81 -40q-16 -17 -16 -43q0 -81 135 -81q144 0 144 83q0 29 -18.5 45.5t-56.5 29.5t-97 30q-59 18 -106.5 37.5t-75 50.5t-27.5 83q0 44 19.5 72t52 41t70.5 13t68 -9.5t55.5 -22.5t47 -22.5t41.5 -9.5q29 0 29 32
v22h101v-26q0 -64 -31.5 -89t-74.5 -25q-32 0 -61.5 9.5t-57 22.5t-54 22.5t-52.5 9.5q-49 0 -49 -42q0 -37 38.5 -54.5t109.5 -37.5q62 -17 115 -38t85 -54t32 -88q0 -47 -26 -85t-80 -61t-138 -23z" />
    <glyph glyph-name="khmuGo-lao" unicode="&#xede;" horiz-adv-x="622" 
d="M104 -7q-19 0 -41.5 4.5t-41.5 12.5l15 73q18 -6 35 -6t27 8.5t10 30.5v240q0 54 -16.5 88t-40.5 56l73 59q15 -12 32 -34.5t25 -45.5h3q34 43 77.5 61.5t94.5 18.5q92 0 140 -52.5t48 -150.5v-80h73v-75h-73v-201h-106v201h-55q-56 0 -82 25.5t-26 61.5q0 16 4.5 33
t11.5 30l71 -12q-3 -5 -4.5 -14t-1.5 -16q0 -14 8.5 -23.5t26.5 -9.5h47v71q0 60 -24.5 93t-81.5 33q-28 0 -55 -10t-44.5 -35.5t-17.5 -71.5v-241q0 -58 -29.5 -90t-81.5 -32z" />
    <glyph glyph-name="khmuNyo-lao" unicode="&#xedf;" horiz-adv-x="615" 
d="M302 -10q-119 0 -180.5 46t-61.5 126q0 60 29 90t64 37v4q-34 11 -63.5 41.5t-29.5 84.5q0 35 16.5 67.5t52.5 52.5t95 20q28 0 54.5 -4.5t43.5 -12.5l-18 -79q-10 4 -27 7t-35 3q-38 0 -57 -17.5t-19 -49.5q0 -30 14.5 -47t34 -23.5t33.5 -6.5h25v-73h-25q-34 0 -58 -21
t-24 -64q0 -46 33.5 -70.5t101.5 -24.5t100 25t32 81v52h-32q-56 0 -82 25.5t-26 61.5q0 16 4.5 33t11.5 30l70 -11q-2 -5 -3.5 -14.5t-1.5 -16.5q0 -33 35 -33h24v240h106v-240h72v-75h-72v-42q0 -106 -60.5 -154t-176.5 -48z" />
    <glyph glyph-name="aVowel-lao" unicode="&#xeb0;" horiz-adv-x="366" 
d="M146 348q-62 0 -88 28t-26 62q0 16 4.5 34.5t11.5 30.5h87q-9 -18 -9 -39q0 -14 7.5 -23t25.5 -9h154v-84h-167zM146 41q-62 0 -88 27.5t-26 62.5q0 16 4.5 34.5t11.5 31.5h87q-4 -8 -6.5 -18.5t-2.5 -20.5q0 -14 7.5 -23t25.5 -9h154v-85h-167z" />
    <glyph glyph-name="aaVowel-lao" unicode="&#xeb2;" horiz-adv-x="334" 
d="M152 0v416q0 32 -15 46t-46 14q-23 0 -42 -5.5t-32 -10.5l-15 76q22 10 53 16.5t63 6.5q64 0 102.5 -30t38.5 -97v-432h-107z" />
    <glyph glyph-name="amVowel-lao" unicode="&#xeb3;" horiz-adv-x="334" 
d="M-140 622q-51 0 -81 28t-30 75t30 75t81 28q52 0 82.5 -28t30.5 -75t-30.5 -75t-82.5 -28zM-140 680q22 0 35.5 12.5t13.5 33.5q0 20 -13 32.5t-35 12.5q-23 0 -35.5 -12.5t-12.5 -33.5t12.5 -33t34.5 -12zM152 0v416q0 32 -15 46t-46 14q-23 0 -42 -5.5t-32 -10.5
l-15 76q22 10 53 16.5t63 6.5q64 0 102.5 -30t38.5 -97v-432h-107z" />
    <glyph glyph-name="nyoVowel-lao" unicode="&#xebd;" horiz-adv-x="577" 
d="M270 -252q-67 0 -119.5 19.5t-82.5 57.5t-30 93q0 49 31 83l87 -42q-7 -8 -11 -17.5t-4 -23.5q0 -40 32 -63t93 -23q64 0 102 27.5t38 80.5v167q0 56 -42.5 89.5t-128.5 60.5q-59 19 -106 38.5t-75 51t-28 85.5q0 68 42 97.5t100 29.5q38 0 68 -9.5t55 -22.5t46.5 -22.5
t41.5 -9.5q29 0 29 32v22h102v-26q0 -64 -31 -89t-75 -25q-32 0 -61.5 9.5t-57 22.5t-54 22.5t-52.5 9.5q-49 0 -49 -41q0 -26 20 -42.5t54 -28t74 -23.5q68 -22 120.5 -50t82.5 -69.5t30 -105.5v-172q0 -53 -26.5 -96.5t-80.5 -70t-134 -26.5z" />
    <glyph glyph-name="eVowel-lao" unicode="&#xec0;" horiz-adv-x="289" 
d="M191 -10q-49 0 -84 26t-35 90v443h107v-436q0 -21 9.5 -30.5t31.5 -9.5q9 0 18.5 2t18.5 5l15 -73q-21 -10 -42 -13.5t-39 -3.5z" />
    <glyph glyph-name="aeVowel-lao" unicode="&#xec1;" horiz-adv-x="534" 
d="M436 -10q-49 0 -84 26t-35 90v443h106v-436q0 -21 9.5 -30.5t31.5 -9.5q10 0 19.5 2t17.5 5l15 -73q-21 -10 -42 -13.5t-38 -3.5zM190 -10q-48 0 -83 26t-35 90v443h106v-436q0 -21 9 -30.5t32 -9.5q10 0 19 2t18 5l15 -73q-21 -10 -42 -13.5t-39 -3.5z" />
    <glyph glyph-name="oVowel-lao" unicode="&#xec2;" horiz-adv-x="301" 
d="M204 -10q-50 0 -85 26t-35 90v426q0 29 -11 48.5t-27.5 34.5l-33.5 30.5t-28 36t-11 51.5q0 51 35.5 82t106.5 31h169v-78h-157q-22 0 -33 -8.5t-15 -19t-4 -17.5q0 -19 17.5 -36l40.5 -37.5t40.5 -50t17.5 -73.5v-413q0 -21 9.5 -30.5t31.5 -9.5q10 0 19.5 2t17.5 5
l15 -73q-21 -10 -42 -13.5t-38 -3.5z" />
    <glyph glyph-name="ayMaiMuanVowel-lao" unicode="&#xec3;" horiz-adv-x="304" 
d="M206 -10q-49 0 -84 26t-35 90v405q0 42 17 71t39 50.5t39 41.5t17 45q0 24 -17.5 38.5t-47.5 14.5t-48 -15t-18 -43v-21h-98v21q0 47 23 79t60.5 48t82.5 16q43 0 80.5 -15t61 -44.5t23.5 -74.5q0 -31 -11 -52t-27 -37l-31.5 -32t-26.5 -35.5t-11 -47.5v-406
q0 -21 9 -30.5t32 -9.5q9 0 18.5 2t18.5 5l15 -73q-22 -10 -43 -13.5t-38 -3.5z" />
    <glyph glyph-name="aiMaiMayVowel-lao" unicode="&#xec4;" horiz-adv-x="334" 
d="M231 -10q-49 0 -84 26t-35 90v431q0 97 29.5 152t65.5 74l-1 5h-227l30 78h308v-95q-46 -18 -72.5 -64t-26.5 -132v-442q0 -40 41 -40q10 0 19.5 2t17.5 5l16 -73q-22 -10 -43 -13.5t-38 -3.5z" />
    <glyph glyph-name="amVowel-lao.narrow" horiz-adv-x="334" 
d="M-345 622q-50 0 -80.5 28t-30.5 75t30.5 75t80.5 28q52 0 82.5 -28t30.5 -75t-30.5 -75t-82.5 -28zM-345 680q23 0 36 12.5t13 33.5q0 20 -13 32.5t-35 12.5t-35 -12.5t-13 -33.5t13 -33t34 -12zM152 0v416q0 32 -15 46t-46 14q-23 0 -42 -5.5t-32 -10.5l-15 76
q22 10 53 16.5t63 6.5q64 0 102.5 -30t38.5 -97v-432h-107z" />
    <glyph glyph-name="hoNo-lao" unicode="&#xedc;" horiz-adv-x="966" 
d="M242 -10q-82 0 -126 44t-44 128v387h105v-394q0 -79 67 -79t67 79v271q0 57 -43 88l74 51q33 -17 55 -60h3q46 54 125 54q63 0 95 -36.5t32 -105.5v-262q0 -38 18.5 -58.5t50.5 -20.5q65 0 65 87v386h105v-393q0 -166 -134 -166q-91 0 -135 77h-3q-17 -50 -48 -77l-74 56
q55 53 55 146v206q0 75 -70 75q-71 0 -71 -75v-236q0 -84 -43.5 -128t-125.5 -44z" />
    <glyph glyph-name="hoMo-lao" unicode="&#xedd;" horiz-adv-x="992" 
d="M243 -10q-84 0 -127.5 44t-43.5 128v387h105v-394q0 -79 67 -79t67 79v271q0 57 -43 88l74 51q33 -16 55 -60h3q19 23 52 38.5t79 15.5q71 0 108.5 -36.5t37.5 -105.5v-255q0 -42 18.5 -64t52.5 -22q64 0 64 79v394h105v-388q0 -83 -34.5 -127t-102.5 -44
q-43 0 -71.5 16.5t-45.5 46.5h-4q-4 -31 -30 -47t-66 -16q-94 0 -109 96l66 16q11 -32 35 -32q23 0 23 27v299q0 38 -22 58.5t-61 20.5q-40 0 -62 -20.5t-22 -57.5v-235q0 -83 -42 -127.5t-126 -44.5z" />
    <glyph glyph-name="zero-lao" unicode="&#xed0;" horiz-adv-x="611" 
d="M305 -10q-75 0 -129.5 28.5t-84 91t-29.5 165.5q0 102 29.5 164.5t84 91t129.5 28.5t129.5 -28.5t84 -91t29.5 -164.5q0 -103 -29.5 -165.5t-84 -91t-129.5 -28.5zM305 76q73 0 105 48.5t32 150.5q0 101 -32 149.5t-105 48.5q-71 0 -104 -48.5t-33 -149.5
q0 -102 33 -150.5t104 -48.5z" />
    <glyph glyph-name="one-lao" unicode="&#xed1;" horiz-adv-x="585" 
d="M273 -10q-55 0 -101.5 12t-81.5 32v90q38 -21 80 -34.5t91 -13.5q83 0 118.5 48t35.5 156q0 101 -32 147t-108 46q-108 0 -108 -94q0 -47 25.5 -66.5t74.5 -19.5q10 0 20.5 0.5t16.5 1.5l-14 -80l-17 -2.5t-25 -1.5q-82 0 -134.5 45t-52.5 125q0 89 61 133.5t159 44.5
q74 0 128 -27.5t83 -89t29 -163.5q0 -104 -30 -167.5t-85.5 -92.5t-132.5 -29z" />
    <glyph glyph-name="two-lao" unicode="&#xed2;" horiz-adv-x="583" 
d="M297 -10q-71 0 -125.5 27.5t-85.5 86t-31 152.5q0 84 24 141.5t62.5 97t83.5 67.5q36 23 74.5 43.5t65.5 42.5t27 49v23h96v-22q0 -44 -25.5 -73.5t-68 -55t-93.5 -60.5q-48 -33 -79 -65.5t-46 -75t-15 -105.5q0 -103 37 -145t103 -42q61 0 87.5 28t26.5 74t-26 66.5
t-82 20.5h-11.5t-11.5 -1l21 86q103 0 159.5 -42t56.5 -128q0 -62 -29 -104.5t-79.5 -64t-115.5 -21.5z" />
    <glyph glyph-name="three-lao" unicode="&#xed3;" horiz-adv-x="598" 
d="M96 -10q-38 0 -78 17l15 73q9 -3 18 -5t17 -2q16 0 26.5 9t10.5 30v306h106v-225q0 -63 31 -90t76 -27q100 0 100 117v144q0 46 -24.5 77t-66.5 60q-41 28 -80.5 52t-65 51t-25.5 65q0 40 27 61t73 21q13 0 31 -2t37 -10l184 -73v-83l-193 78q-12 5 -24 8t-19 3
q-22 0 -22 -16q0 -13 19.5 -25.5t50 -28t64.5 -35.5q62 -37 100.5 -83.5t38.5 -113.5v-154q0 -105 -49.5 -152t-139.5 -47q-32 0 -68 11t-70 52h-3q-2 -31 -31.5 -47t-65.5 -16z" />
    <glyph glyph-name="four-lao" unicode="&#xed4;" horiz-adv-x="617" 
d="M254 -10q-91 0 -142 50t-51 153v114q0 70 17.5 115.5t46.5 72.5t64.5 40t72 17.5t68.5 6.5q38 3 64.5 11t40.5 33.5t14 80.5v30h98v-35q0 -67 -18 -107t-47 -60.5t-64 -28t-69 -9.5q-41 -2 -74.5 -7t-57.5 -20t-37 -48t-13 -91v-113q0 -61 25 -90t80 -29q29 0 54 9.5
t40 33t15 65.5v95q0 60 31.5 85.5t77.5 25.5q20 0 42.5 -4t42.5 -12l-16 -73q-9 2 -17.5 4.5t-17.5 2.5q-16 0 -26 -9t-10 -32v-87q0 -52 16.5 -81t40.5 -52l-77 -57q-15 12 -30 34t-24 44h-3q-34 -44 -72 -61t-85 -17z" />
    <glyph glyph-name="five-lao" unicode="&#xed5;" horiz-adv-x="617" 
d="M254 -10q-91 0 -142 50t-51 153v114q0 95 35 147.5t81 68.5q-23 29 -23 72q0 54 32 83.5t84 29.5q51 0 83 -32t32 -81q0 -17 -4 -32q39 8 53.5 35.5t14.5 85.5v30h98v-35q0 -67 -18 -107t-47 -60.5t-64 -28t-69 -9.5q-41 -2 -74.5 -7t-57.5 -20t-37 -48t-13 -91v-113
q0 -61 25 -90t80 -29q29 0 54 9.5t40 33t15 65.5v95q0 60 31.5 85.5t77.5 25.5q20 0 42.5 -4t42.5 -12l-16 -73q-9 2 -17.5 4.5t-17.5 2.5q-16 0 -26 -9t-10 -32v-87q0 -52 16.5 -81t40.5 -52l-77 -57q-15 12 -30 34t-24 44h-3q-34 -44 -72 -61t-85 -17zM268 549
q21 0 34 12.5t13 32.5t-13 33t-34 13q-20 0 -33 -12t-13 -34q0 -20 13 -32.5t33 -12.5z" />
    <glyph glyph-name="six-lao" unicode="&#xed6;" horiz-adv-x="637" 
d="M204 -10q-64 0 -99.5 42t-35.5 118v209q0 61 31.5 87.5t78.5 26.5q22 0 43.5 -4.5t40.5 -12.5l-16 -70q-8 3 -17.5 5.5t-17.5 2.5q-16 0 -27.5 -10t-11.5 -32v-206q0 -70 50 -70t50 60v177h85v-177q0 -60 50 -60q25 0 38 16.5t13 53.5v189q0 49 -27 81t-73 61
q-38 26 -76 49t-63.5 50.5t-25.5 65.5q0 40 27 61t72 21q35 0 70 -13l184 -72v-83l-193 78q-10 4 -23.5 7.5t-21.5 3.5q-20 0 -20 -16q0 -13 19.5 -25.5t49.5 -28t64 -35.5q62 -37 101 -83.5t39 -113.5v-194q0 -75 -35 -117t-100 -42q-48 0 -73.5 20.5t-36.5 45.5h-4
q-11 -25 -36 -45.5t-73 -20.5z" />
    <glyph glyph-name="seven-lao" unicode="&#xed7;" horiz-adv-x="620" 
d="M438 -177v525q0 59 -24.5 92t-81.5 33q-28 0 -55 -10t-45 -35.5t-18 -71.5v-244q0 -58 -29 -90t-81 -32q-19 0 -41.5 4.5t-41.5 12.5l15 73q9 -3 18 -5t17 -2q17 0 27 9t10 30v244q0 54 -16.5 88t-40.5 56l73 59q15 -12 32 -34.5t25 -45.5h3q34 43 77.5 61.5t94.5 18.5
q92 0 140 -52.5t48 -150.5v-533h-106z" />
    <glyph glyph-name="eight-lao" unicode="&#xed8;" horiz-adv-x="637" 
d="M210 -191q-38 0 -60.5 21.5t-22.5 56.5q0 39 31 66.5t90 55.5l207 97v277q0 42 -12.5 66t-39.5 24q-26 0 -39.5 -20t-17.5 -51h-59q-5 33 -16.5 52t-38.5 19q-33 0 -52.5 -36t-19.5 -121q0 -58 8.5 -92t21 -49.5t26 -20t22.5 -4.5q11 0 20 2t19 5l15 -73
q-19 -8 -38.5 -12t-42.5 -4q-25 0 -52 8.5t-51 33.5t-39 73t-15 127q0 90 21 145t57 79.5t83 24.5q39 0 63 -16.5t37 -48.5h4q12 28 39.5 46.5t70.5 18.5q67 0 99.5 -45.5t32.5 -124.5v-290q0 -38 -16.5 -69.5t-40.5 -55.5q21 -10 34 -30t13 -46q0 -37 -26 -63t-64 -26
q-33 0 -56.5 20t-28.5 51q-39 -31 -83.5 -51t-82.5 -20zM228 -119q18 0 49 14t64.5 36.5t61 49t39.5 51.5l-182 -90q-27 -13 -38.5 -24.5t-11.5 -21.5q0 -15 18 -15zM460 -137q15 0 26 10.5t11 25.5q0 14 -11 24.5t-26 10.5q-14 0 -24 -10.5t-10 -24.5q0 -15 10 -25.5
t24 -10.5z" />
    <glyph glyph-name="nine-lao" unicode="&#xed9;" horiz-adv-x="756" 
d="M215 -10q-83 0 -120 67t-37 200q0 158 50 230t155 72q173 0 173 -187v-202q0 -94 70 -94t70 94v379h105v-368q0 -94 -42 -142.5t-132 -48.5t-132 48t-42 143v192q0 100 -71 100q-50 0 -74.5 -51t-24.5 -164q0 -98 19.5 -141.5t60.5 -43.5q7 0 16 1.5t16 4.5l16 -74
q-35 -15 -76 -15z" />
    <glyph glyph-name="koLa-lao" unicode="&#xec6;" horiz-adv-x="628" 
d="M427 -177v596q0 24 -10 38.5t-33 14.5q-27 0 -45 -17.5t-30 -41.5h-40q-13 25 -29.5 42t-44.5 17q-52 0 -52 -63q0 -37 16 -51.5t41 -14.5q10 0 19.5 2t18.5 5l17 -73q-33 -18 -78 -18q-57 0 -96.5 37.5t-39.5 114.5q0 71 35.5 109.5t94.5 38.5q42 0 71 -17.5t46 -44.5h3
q19 29 49.5 45.5t70.5 16.5q55 0 88.5 -32.5t33.5 -94.5v-609h-106z" />
    <glyph glyph-name="ellipsis-lao" unicode="&#xeaf;" horiz-adv-x="578" 
d="M396 0v388h-5q-18 -18 -54 -32t-90 -14q-86 0 -135 44.5t-49 141.5v21h106v-19q0 -54 26.5 -77t77.5 -23q56 0 95 26t39 81v12h96v-549h-107z" />
    <glyph glyph-name="kip" unicode="&#x20ad;" horiz-adv-x="584" 
d="M89 0v325h-80v75h80v314h109v-314h26l226 314h122l-237 -314h188v-75h-168l225 -325h-126l-215 325h-41v-325h-109z" />
    <glyph glyph-name="maiKanVowel-lao" unicode="&#xeb1;" 
d="M-247 637q-55 0 -80.5 22t-25.5 64q0 19 4.5 37.5t12.5 30.5h86q-10 -20 -10 -37t10.5 -28.5t33.5 -11.5h262v-77h-293z" />
    <glyph glyph-name="iVowel-lao" unicode="&#xeb4;" 
d="M-379 627q-39 0 -72.5 12t-54 35.5t-20.5 59.5q0 42 30.5 71.5t81 44.5t111.5 15q60 0 111 -15t81.5 -44.5t30.5 -71.5q0 -36 -21.5 -60t-55 -35.5t-70.5 -11.5l-15 55q6 0 23 4t32 15t15 33q0 29 -34 46t-98 17t-98 -17t-34 -46q0 -22 15.5 -33t33 -15t22.5 -4z" />
    <glyph glyph-name="iiVowel-lao" unicode="&#xeb5;" 
d="M-379 627q-39 0 -72.5 12t-54 35.5t-20.5 59.5q0 42 30.5 71t81 44.5t110.5 15.5q63 0 113.5 -15.5t80.5 -43.5t30 -64q0 -30 -31 -51v-2q10 3 26 4.5t26 1.5h29v-68h-197l-15 55q6 0 23 4t32.5 15t15.5 33q0 29 -34 46t-98 17q-65 0 -99 -17t-34 -46q0 -22 15.5 -33
t33 -15t22.5 -4z" />
    <glyph glyph-name="euVowel-lao" unicode="&#xeb6;" 
d="M-379 627q-39 0 -72.5 12t-54 35.5t-20.5 59.5q0 42 30.5 71.5t81 44.5t111.5 15q60 0 111 -15t81.5 -44.5t30.5 -71.5q0 -36 -21.5 -60t-55 -35.5t-70.5 -11.5l-15 55q6 0 23 4t32 15t15 33q0 29 -34 46t-98 17t-98 -17t-34 -46q0 -22 15.5 -33t33 -15t22.5 -4z
M-303 688q-19 0 -31 11t-12 31q0 19 12 30.5t31 11.5t30.5 -11.5t11.5 -30.5q0 -20 -11.5 -31t-30.5 -11z" />
    <glyph glyph-name="euuVowel-lao" unicode="&#xeb7;" 
d="M-379 627q-39 0 -72.5 12t-54 35.5t-20.5 59.5q0 42 30.5 71t81 44.5t110.5 15.5q63 0 113.5 -15.5t80.5 -43.5t30 -64q0 -30 -31 -51v-2q10 3 26 4.5t26 1.5h29v-68h-197l-15 55q6 0 23 4t32.5 15t15.5 33q0 29 -34 46t-98 17q-65 0 -99 -17t-34 -46q0 -22 15.5 -33
t33 -15t22.5 -4zM-303 688q-19 0 -31 11t-12 31q0 19 12 30.5t31 11.5t30.5 -11.5t11.5 -30.5q0 -20 -11.5 -31t-30.5 -11z" />
    <glyph glyph-name="maiKonVowel-lao" unicode="&#xebb;" 
d="M-337 637q-7 13 -12 31t-5 38q0 42 25.5 63.5t80.5 21.5h295v-77h-264q-23 0 -33.5 -11t-10.5 -28q0 -16 10 -38h-86z" />
    <glyph glyph-name="uVowel-lao" unicode="&#xeb8;" 
d="M-163 -281v102q0 29 -27 29q-8 0 -16 -2t-14 -4l-15 63q13 7 36 12t43 5q35 0 58 -20t23 -71v-114h-88z" />
    <glyph glyph-name="uuVowel-lao" unicode="&#xeb9;" 
d="M-215 -287q-68 0 -101.5 26.5t-33.5 72.5v16q0 22 -18 22q-4 0 -9.5 -1t-9.5 -2l-8 66q14 5 31.5 8t30.5 3q37 0 53.5 -18.5t16.5 -48.5v-34q0 -18 10.5 -30t38.5 -12q27 0 38 11.5t11 30.5v97h90v-101q0 -49 -34.5 -77.5t-105.5 -28.5z" />
    <glyph glyph-name="loVowel-lao" unicode="&#xebc;" 
d="M-426 -216q-15 22 -15 55q0 42 26.5 63.5t75.5 21.5q37 0 66.5 -9l56.5 -18t56 -9q45 0 84 24v-78q-39 -24 -84 -24q-31 0 -58 9t-51.5 18t-48.5 9q-30 0 -30 -27q0 -19 10 -35h-88z" />
    <glyph glyph-name="maiEk-lao" unicode="&#xec8;" 
d="M-180 637v180h102v-180h-102z" />
    <glyph glyph-name="maiTho-lao" unicode="&#xec9;" 
d="M-335 637v43q36 5 59 22.5t23 44.5q0 36 -38 36q-9 0 -18 -2.5t-17 -6.5l-18 51q14 10 36.5 16t47.5 6q45 0 69.5 -20.5t24.5 -56.5q0 -39 -23 -57h188v-76h-334z" />
    <glyph glyph-name="maiTi-lao" unicode="&#xeca;" 
d="M-362 634q-44 0 -69 25.5t-25 70.5q0 46 27 73t74 27l71 -37l65 37q53 0 80 -21t27 -55q0 -28 -15 -48h86v-69h-188v45q17 3 26 15.5t9 30.5q0 17 -8.5 27t-21.5 12l-55 -26h-11l-55 26q-13 -1 -21.5 -10t-8.5 -29q0 -18 8.5 -29t24.5 -11h8t9 2l6 -48q-13 -8 -43 -8z
" />
    <glyph glyph-name="maiCatawa-lao" unicode="&#xecb;" 
d="M-229 637v70h-84v68h84v70h97v-70h85v-68h-85v-70h-97z" />
    <glyph glyph-name="karan-lao" unicode="&#xecc;" 
d="M-280 628q-10 14 -15.5 34t-5.5 40q0 47 27.5 73.5t81.5 26.5h168v-78h-133q-20 0 -32 -11.5t-12 -31.5q0 -21 13 -40z" />
    <glyph glyph-name="niggahita-lao" unicode="&#xecd;" 
d="M-307 622q-51 0 -81 28t-30 75t30 75t81 28q52 0 82.5 -28t30.5 -75t-30.5 -75t-82.5 -28zM-307 680q23 0 35.5 12.5t12.5 33.5q0 20 -12.5 32.5t-34.5 12.5t-35 -12.5t-13 -33.5t12.5 -33t34.5 -12z" />
    <glyph glyph-name="niggahita_maiEk-lao" 
d="M-307 622q-51 0 -81 28t-30 75t30 75t81 28q52 0 82.5 -28t30.5 -75t-30.5 -75t-82.5 -28zM-307 680q23 0 35.5 12.5t12.5 33.5q0 20 -12.5 32.5t-34.5 12.5t-35 -12.5t-13 -33.5t12.5 -33t34.5 -12zM-351 894v161h88v-161h-88z" />
    <glyph glyph-name="niggahita_maiTho-lao" 
d="M-307 622q-51 0 -81 28t-30 75t30 75t81 28q52 0 82.5 -28t30.5 -75t-30.5 -75t-82.5 -28zM-307 680q23 0 35.5 12.5t12.5 33.5q0 20 -12.5 32.5t-34.5 12.5t-35 -12.5t-13 -33.5t12.5 -33t34.5 -12zM-441 894v49q32 4 54.5 17.5t22.5 33.5q0 13 -9.5 19t-23.5 6
q-22 0 -35 -9l-19 52q14 9 37 15t47 6q41 0 64 -18t23 -49q0 -17 -7 -30.5t-17 -21.5h174v-70h-311z" />
    <glyph glyph-name="niggahita_maiTi-lao" 
d="M-307 622q-51 0 -81 28t-30 75t30 75t81 28q52 0 82.5 -28t30.5 -75t-30.5 -75t-82.5 -28zM-307 680q23 0 35.5 12.5t12.5 33.5q0 20 -12.5 32.5t-34.5 12.5t-35 -12.5t-13 -33.5t12.5 -33t34.5 -12zM-387 891q-41 0 -63.5 25t-22.5 63t25 65.5t71 27.5l57 -34l53 34
q38 0 67 -18t29 -55q0 -28 -12 -43h77v-62h-170v44q16 1 26 12t10 27q0 14 -8 24.5t-23 12.5l-47 -27h-5l-48 27q-16 -1 -24 -11t-8 -24t8 -24t24 -10q4 0 10.5 1t10.5 2l7 -49q-7 -3 -18.5 -5.5t-25.5 -2.5z" />
    <glyph glyph-name="niggahita_maiCatawa-lao" 
d="M-307 622q-51 0 -81 28t-30 75t30 75t81 28q52 0 82.5 -28t30.5 -75t-30.5 -75t-82.5 -28zM-307 680q23 0 35.5 12.5t12.5 33.5q0 20 -12.5 32.5t-34.5 12.5t-35 -12.5t-13 -33.5t12.5 -33t34.5 -12zM-348 894v57h-70v66h70v56h84v-56h69v-66h-69v-57h-84z" />
    <glyph glyph-name="maiEk-lao.small" 
d="M-171 931v161h88v-161h-88z" />
    <glyph glyph-name="maiTho-lao.small" 
d="M-280 931v49q32 4 54.5 17.5t22.5 33.5q0 13 -9.5 19t-23.5 6q-22 0 -35 -9l-19 52q14 9 37 15t47 6q41 0 64 -18t23 -49q0 -17 -7 -30.5t-17 -21.5h174v-70h-311z" />
    <glyph glyph-name="maiTi-lao.small" 
d="M-246 928q-41 0 -63.5 25t-22.5 63t25 65.5t71 27.5l57 -34l53 34q38 0 67 -18t29 -55q0 -28 -12 -43h77v-62h-170v44q16 1 26 12t10 27q0 14 -8 24.5t-23 12.5l-47 -27h-5l-48 27q-16 -1 -24 -11t-8 -24t8 -24t24 -10q4 0 10.5 1t10.5 2l7 -49q-7 -3 -18.5 -5.5
t-25.5 -2.5z" />
    <glyph glyph-name="maiCatawa-lao.small" 
d="M-164 931v57h-70v66h70v56h84v-56h69v-66h-69v-57h-84z" />
    <glyph glyph-name="karan-lao.small" 
d="M-247 921q-19 28 -19 68q0 33 23 57.5t83 24.5h148v-74h-118q-19 0 -30.5 -7.5t-11.5 -23.5q0 -14 10 -31z" />
    <glyph glyph-name="maiKanVowel-lao.narrow" 
d="M-452 637q-106 0 -106 86q0 41 17 68h86q-9 -18 -9 -37q0 -17 10 -28.5t33 -11.5h211v-77h-242z" />
    <glyph glyph-name="iVowel-lao.narrow" 
d="M-465 627q-65 0 -104 29t-39 79q0 59 54.5 94.5t143.5 35.5q90 0 144 -35.5t54 -94.5q0 -50 -39 -79t-104 -29l-12 51q31 3 50 18.5t19 38.5q0 29 -30.5 47t-81.5 18t-81.5 -18t-30.5 -46q0 -22 19.5 -38t51.5 -20z" />
    <glyph glyph-name="iiVowel-lao.narrow" 
d="M-481 627q-65 0 -104 29t-39 79q0 59 54 94.5t145 35.5q90 0 142.5 -33.5t52.5 -81.5q0 -19 -8.5 -34.5t-25.5 -24.5v-2q8 3 21 4.5t27 1.5h29v-68h-183l-15 54q31 5 49 19t18 36q0 28 -30 46t-80 18t-80 -18t-30 -46q0 -22 19.5 -38t51.5 -20z" />
    <glyph glyph-name="euVowel-lao.narrow" 
d="M-465 627q-65 0 -104 29t-39 79q0 59 54.5 94.5t143.5 35.5q90 0 144 -35.5t54 -94.5q0 -50 -39 -79t-104 -29l-12 51q31 3 50 18.5t19 38.5q0 29 -30.5 47t-81.5 18t-81.5 -18t-30.5 -46q0 -22 19.5 -38t51.5 -20zM-410 689q-17 0 -29.5 12t-12.5 30q0 17 12.5 29.5
t29.5 12.5t29.5 -12.5t12.5 -29.5q0 -18 -12.5 -30t-29.5 -12z" />
    <glyph glyph-name="euuVowel-lao.narrow" 
d="M-481 627q-65 0 -104 29t-39 79q0 59 54 94.5t145 35.5q90 0 142.5 -33.5t52.5 -81.5q0 -19 -8.5 -34.5t-25.5 -24.5v-2q8 3 21 4.5t27 1.5h29v-68h-183l-15 54q31 5 49 19t18 36q0 28 -30 46t-80 18t-80 -18t-30 -46q0 -22 19.5 -38t51.5 -20zM-428 689q-17 0 -29.5 12
t-12.5 30q0 17 12.5 29.5t29.5 12.5t29.5 -12.5t12.5 -29.5q0 -18 -12.5 -30t-29.5 -12z" />
    <glyph glyph-name="maiKonVowel-lao.narrow" 
d="M-551 637q-7 12 -11.5 30t-4.5 35q0 33 22.5 59t83.5 26h251v-77h-221q-42 0 -42 -34q0 -8 2 -20t6 -19h-86z" />
    <glyph glyph-name="maiEk-lao.narrow" 
d="M-383 637v180h102v-180h-102z" />
    <glyph glyph-name="maiTho-lao.narrow" 
d="M-497 637v43q35 5 58 22.5t23 44.5q0 36 -38 36q-9 0 -17.5 -2.5t-16.5 -6.5l-18 51q30 22 83 22q45 0 69 -20.5t24 -56.5q0 -39 -23 -57h132v-76h-276z" />
    <glyph glyph-name="maiTi-lao.narrow" 
d="M-450 634q-44 0 -68 25.5t-24 70.5q0 47 26 73.5t74 26.5l56 -37l50 37q52 0 79.5 -21t27.5 -55q0 -28 -14 -48h99v-69h-201v45q17 3 25.5 15.5t8.5 30.5q0 34 -30 39l-40 -26h-11l-41 26q-12 -1 -21 -10t-9 -29q0 -18 8.5 -29t25.5 -11h7.5t8.5 2l7 -48q-14 -8 -44 -8z
" />
    <glyph glyph-name="maiCatawa-lao.narrow" 
d="M-404 637v70h-83v68h83v70h95v-70h83v-68h-83v-70h-95z" />
    <glyph glyph-name="karan-lao.narrow" 
d="M-434 628q-10 14 -15 34t-5 40q0 47 27.5 73.5t80.5 26.5h123v-78h-87q-44 0 -44 -43q0 -11 3.5 -21t8.5 -19z" />
    <glyph glyph-name="niggahita-lao.narrow" 
d="M-345 622q-50 0 -80.5 28t-30.5 75t30.5 75t80.5 28q52 0 82.5 -28t30.5 -75t-30.5 -75t-82.5 -28zM-345 680q23 0 36 12.5t13 33.5q0 20 -13 32.5t-35 12.5t-35 -12.5t-13 -33.5t13 -33t34 -12z" />
    <glyph glyph-name="niggahita_maiEk-lao.narrow" 
d="M-345 622q-51 0 -81 28t-30 75t30 75t81 28q52 0 82.5 -28t30.5 -75t-30.5 -75t-82.5 -28zM-345 680q23 0 35.5 12.5t12.5 33.5q0 20 -12.5 32.5t-34.5 12.5t-35 -12.5t-13 -33.5t12.5 -33t34.5 -12zM-389 894v161h88v-161h-88z" />
    <glyph glyph-name="niggahita_maiTho-lao.narrow" 
d="M-345 622q-51 0 -81 28t-30 75t30 75t81 28q52 0 82.5 -28t30.5 -75t-30.5 -75t-82.5 -28zM-345 680q23 0 35.5 12.5t12.5 33.5q0 20 -12.5 32.5t-34.5 12.5t-35 -12.5t-13 -33.5t12.5 -33t34.5 -12zM-479 894v49q32 4 54.5 17.5t22.5 33.5q0 13 -9.5 19t-23.5 6
q-22 0 -35 -9l-19 52q14 9 37 15t47 6q41 0 64 -18t23 -49q0 -17 -7 -30.5t-17 -21.5h174v-70h-311z" />
    <glyph glyph-name="niggahita_maiTi-lao.narrow" 
d="M-345 622q-51 0 -81 28t-30 75t30 75t81 28q52 0 82.5 -28t30.5 -75t-30.5 -75t-82.5 -28zM-345 680q23 0 35.5 12.5t12.5 33.5q0 20 -12.5 32.5t-34.5 12.5t-35 -12.5t-13 -33.5t12.5 -33t34.5 -12zM-425 891q-41 0 -63.5 25t-22.5 63t25 65.5t71 27.5l57 -34l53 34
q38 0 67 -18t29 -55q0 -28 -12 -43h77v-62h-170v44q16 1 26 12t10 27q0 14 -8 24.5t-23 12.5l-47 -27h-5l-48 27q-16 -1 -24 -11t-8 -24t8 -24t24 -10q4 0 10.5 1t10.5 2l7 -49q-7 -3 -18.5 -5.5t-25.5 -2.5z" />
    <glyph glyph-name="niggahita_maiCatawa-lao.narrow" 
d="M-345 622q-51 0 -81 28t-30 75t30 75t81 28q52 0 82.5 -28t30.5 -75t-30.5 -75t-82.5 -28zM-345 680q23 0 35.5 12.5t12.5 33.5q0 20 -12.5 32.5t-34.5 12.5t-35 -12.5t-13 -33.5t12.5 -33t34.5 -12zM-386 894v57h-70v66h70v56h84v-56h69v-66h-69v-57h-84z" />
    <glyph glyph-name="niggahita_maiEk-lao.right" 
d="M-140 622q-51 0 -81 28t-30 75t30 75t81 28q52 0 82.5 -28t30.5 -75t-30.5 -75t-82.5 -28zM-140 680q23 0 35.5 12.5t12.5 33.5q0 20 -12.5 32.5t-34.5 12.5t-35 -12.5t-13 -33.5t12.5 -33t34.5 -12zM-184 894v161h88v-161h-88z" />
    <glyph glyph-name="niggahita_maiTho-lao.right" 
d="M-140 622q-51 0 -81 28t-30 75t30 75t81 28q52 0 82.5 -28t30.5 -75t-30.5 -75t-82.5 -28zM-140 680q23 0 35.5 12.5t12.5 33.5q0 20 -12.5 32.5t-34.5 12.5t-35 -12.5t-13 -33.5t12.5 -33t34.5 -12zM-274 894v49q32 4 54.5 17.5t22.5 33.5q0 13 -9.5 19t-23.5 6
q-22 0 -35 -9l-19 52q14 9 37 15t47 6q41 0 64 -18t23 -49q0 -17 -7 -30.5t-17 -21.5h174v-70h-311z" />
    <glyph glyph-name="niggahita_maiTi-lao.right" 
d="M-140 622q-51 0 -81 28t-30 75t30 75t81 28q52 0 82.5 -28t30.5 -75t-30.5 -75t-82.5 -28zM-140 680q23 0 35.5 12.5t12.5 33.5q0 20 -12.5 32.5t-34.5 12.5t-35 -12.5t-13 -33.5t12.5 -33t34.5 -12zM-220 891q-41 0 -63.5 25t-22.5 63t25 65.5t71 27.5l57 -34l53 34
q38 0 67 -18t29 -55q0 -28 -12 -43h77v-62h-170v44q16 1 26 12t10 27q0 14 -8 24.5t-23 12.5l-47 -27h-5l-48 27q-16 -1 -24 -11t-8 -24t8 -24t24 -10q4 0 10.5 1t10.5 2l7 -49q-7 -3 -18.5 -5.5t-25.5 -2.5z" />
    <glyph glyph-name="niggahita_maiCatawa-lao.right" 
d="M-140 622q-51 0 -81 28t-30 75t30 75t81 28q52 0 82.5 -28t30.5 -75t-30.5 -75t-82.5 -28zM-140 680q23 0 35.5 12.5t12.5 33.5q0 20 -12.5 32.5t-34.5 12.5t-35 -12.5t-13 -33.5t12.5 -33t34.5 -12zM-181 894v57h-70v66h70v56h84v-56h69v-66h-69v-57h-84z" />
    <glyph glyph-name="uVowel-lao.small" 
d="M-163 -439v99q0 29 -27 29q-8 0 -16 -2t-14 -4l-15 63q13 7 36 11.5t42 4.5q36 0 59 -19.5t23 -70.5v-111h-88z" />
    <glyph glyph-name="uuVowel-lao.small" 
d="M-209 -442q-131 0 -131 97v16q0 21 -18 21q-5 0 -9.5 -0.5t-8.5 -1.5l-9 62q16 5 31.5 7.5t29.5 2.5q72 0 72 -64v-33q0 -18 9 -29.5t35 -11.5t34.5 11.5t8.5 30.5v93h90v-98q0 -49 -32 -76t-102 -27z" />
    <glyph glyph-name="loVowel-lao.small" 
d="M-426 -377q-15 21 -15 55q0 42 26.5 63t75.5 21q37 0 66.5 -9l56.5 -18t56 -9q45 0 84 24v-77q-39 -24 -84 -24q-31 0 -58 9t-51.5 18t-48.5 9q-30 0 -30 -27q0 -19 10 -35h-88z" />
    <glyph glyph-name="maiKanVowel-lao.center" 
d="M-389 637q-55 0 -80.5 22t-25.5 64q0 41 17 68h86q-10 -20 -10 -37t11 -28.5t33 -11.5h283v-77h-314z" />
    <glyph glyph-name="maiKonVowel-lao.center" 
d="M-478 637q-8 13 -12.5 31t-4.5 38q0 42 25.5 63.5t80.5 21.5h314v-77h-283q-22 0 -33 -11t-11 -28q0 -16 10 -38h-86z" />
    <glyph glyph-name="uVowel-lao.narrow" 
d="M-315 -281v102q0 29 -26 29q-8 0 -16 -2t-14 -4l-15 63q14 7 36 12t42 5q36 0 59 -20t23 -71v-114h-89z" />
    <glyph glyph-name="uuVowel-lao.narrow" 
d="M-360 -287q-66 0 -98.5 26.5t-32.5 72.5v16q0 22 -18 22q-5 0 -10 -1t-9 -2l-8 66q15 5 32 8t30 3q38 0 54 -18.5t16 -48.5v-34q0 -19 10 -30.5t35 -11.5t34 11.5t9 30.5v97h90v-101q0 -49 -32.5 -77.5t-101.5 -28.5z" />
    <glyph glyph-name="loVowel-lao.narrow" 
d="M-538 -216q-15 22 -15 55q0 32 21.5 58.5t76.5 26.5q34 0 60.5 -9t50 -18t49.5 -9q15 0 32 4.5t37 17.5v-76q-20 -13 -37.5 -18t-33.5 -5q-26 0 -48.5 8.5l-44.5 17.5t-45 9q-17 0 -23 -6t-6 -18q0 -8 3 -19t7 -19h-84z" />
    <glyph glyph-name="niggahita-lao.right" 
d="M-139 622q-51 0 -81 28t-30 75t30 75t81 28t82 -28t31 -75t-31 -75t-82 -28zM-139 680q22 0 35 12.5t13 33.5q0 20 -13 32.5t-34 12.5q-22 0 -35.5 -12.5t-13.5 -33.5t13 -33t35 -12z" />
    <glyph glyph-name="uni00A0" unicode="&#xa0;" horiz-adv-x="260" 
 />
    <glyph glyph-name="uni200B" unicode="&#x200b;" 
 />
    <glyph glyph-name="uni200C" unicode="&#x200c;" 
d="M-21 -133v761h42v-761h-42z" />
    <glyph glyph-name="uni200D" unicode="&#x200d;" 
d="M-21 -133v668l-62 -62l-26 27l82 82l-82 81l26 27l83 -83l83 83l26 -27l-82 -81l82 -82l-26 -27l-62 62v-668h-42z" />
    <glyph glyph-name="dottedCircle" unicode="&#x25cc;" horiz-adv-x="594" 
d="M297 487q-11 0 -18.5 7.5t-7.5 19.5q0 11 7.5 18.5t18.5 7.5t18.5 -7.5t7.5 -18.5q0 -12 -7.5 -19.5t-18.5 -7.5zM383 470q-12 0 -20 7.5t-8 18.5q0 12 8 19.5t20 7.5q25 0 25 -27q0 -11 -7 -18.5t-18 -7.5zM212 470q-11 0 -18.5 7.5t-7.5 18.5q0 12 7.5 19.5t18.5 7.5
q12 0 19.5 -7.5t7.5 -19.5q0 -11 -7.5 -18.5t-19.5 -7.5zM140 422q-11 0 -18.5 7t-7.5 18q0 12 7.5 20t18.5 8q12 0 19.5 -7.5t7.5 -19.5q0 -11 -7.5 -18.5t-19.5 -7.5zM455 422q-12 0 -19.5 7.5t-7.5 18.5q0 12 7.5 19.5t19.5 7.5q25 0 25 -27q0 -11 -7 -18.5t-18 -7.5z
M93 349q-12 0 -20 7.5t-8 19.5q0 11 7.5 18.5t19.5 7.5q11 0 18.5 -7.5t7.5 -18.5q0 -27 -25 -27zM502 349q-11 0 -18.5 7.5t-7.5 19.5q0 11 7.5 18.5t19.5 7.5q11 0 18.5 -7.5t7.5 -18.5q0 -12 -7.5 -19.5t-19.5 -7.5zM75 265q-12 0 -19.5 7.5t-7.5 18.5t7.5 18.5t19.5 7.5
q11 0 18.5 -7.5t7.5 -18.5t-7.5 -18.5t-18.5 -7.5zM521 265q-12 0 -19.5 7.5t-7.5 18.5t7.5 18.5t19.5 7.5q11 0 18 -7.5t7 -18.5t-7 -18.5t-18 -7.5zM92 180q-12 0 -19.5 7.5t-7.5 18.5q0 12 7.5 19.5t19.5 7.5q11 0 18.5 -7.5t7.5 -19.5q0 -11 -7.5 -18.5t-18.5 -7.5z
M502 180q-11 0 -18.5 7.5t-7.5 18.5q0 12 7.5 19.5t18.5 7.5q12 0 19.5 -7.5t7.5 -19.5q0 -11 -7.5 -18.5t-19.5 -7.5zM140 107q-11 0 -18.5 7.5t-7.5 18.5q0 12 7.5 19.5t18.5 7.5q12 0 19.5 -7.5t7.5 -19.5q0 -11 -7.5 -18.5t-19.5 -7.5zM455 107q-12 0 -19.5 7.5
t-7.5 18.5q0 12 7.5 19.5t19.5 7.5q25 0 25 -27q0 -11 -7 -18.5t-18 -7.5zM212 60q-11 0 -18.5 7t-7.5 18q0 12 7.5 19.5t18.5 7.5q27 0 27 -25q0 -12 -7.5 -19.5t-19.5 -7.5zM383 60q-12 0 -20 7t-8 18q0 12 8 19.5t20 7.5q25 0 25 -27q0 -25 -25 -25zM297 42
q-11 0 -18.5 7.5t-7.5 19.5q0 11 7.5 18.5t18.5 7.5t18.5 -7.5t7.5 -18.5q0 -12 -7.5 -19.5t-18.5 -7.5z" />
  </font>
</defs>
</svg>
