<?xml version="1.0" standalone="no"?>
<!DOCTYPE svg PUBLIC "-//W3C//DTD SVG 1.1//EN" "http://www.w3.org/Graphics/SVG/1.1/DTD/svg11.dtd" >
<svg>
<metadata>
Created by FontForge 20090622 at Mon Mar 18 03:15:16 2019
 By deploy user
Copyright 2017 Google Inc. All Rights Reserved.
</metadata>
<defs>
<font id="NotoSansLao-Light" horiz-adv-x="0" >
  <font-face 
    font-family="Noto Sans Lao Light"
    font-weight="300"
    font-stretch="normal"
    units-per-em="1000"
    panose-1="2 11 4 2 4 5 4 2 2 4"
    ascent="800"
    descent="-200"
    bbox="-572 -387 867 1090"
    underline-thickness="50"
    underline-position="-75"
    unicode-range="U+000D-U+25CC"
  />
<missing-glyph horiz-adv-x="503" 
d="M51 0v714h400v-714h-400zM99 48h304v618h-304v-618z" />
    <glyph glyph-name=".notdef" horiz-adv-x="503" 
d="M51 0v714h400v-714h-400zM99 48h304v618h-304v-618z" />
    <glyph glyph-name="NULL" 
 />
    <glyph glyph-name="NULL" 
 />
    <glyph glyph-name="CR" unicode="&#xd;" horiz-adv-x="260" 
 />
    <glyph glyph-name="space" unicode=" " horiz-adv-x="260" 
 />
    <glyph glyph-name="koKai-lao" unicode="&#xe81;" horiz-adv-x="622" 
d="M101 -8q-30 0 -58 11l9 43q9 -3 17.5 -5t18.5 -2q21 0 33.5 12t12.5 45v282q0 50 -15.5 87t-35.5 61l41 31q34 -42 52 -105h2q28 46 74 75.5t114 29.5q173 0 173 -198v-359h-57v356q0 44 -10.5 78.5t-37.5 54t-76 19.5q-48 0 -86 -20t-59.5 -54t-21.5 -76v-258
q0 -54 -23.5 -81t-66.5 -27z" />
    <glyph glyph-name="khoKhai-lao" unicode="&#xe82;" horiz-adv-x="580" 
d="M190 -10q-32 0 -60.5 12t-46 37t-17.5 65q0 51 29 81t77 49t106 37q54 17 93.5 31.5t60.5 36t21 58.5q0 58 -46.5 84.5t-116.5 26.5t-117.5 -26t-47.5 -81q0 -13 3.5 -24.5t8.5 -20.5l-47 -22q-11 12 -16 31t-5 37q0 39 22 74.5t70.5 58t126.5 22.5q77 0 126 -22
t72.5 -58.5t23.5 -80.5q0 -54 -30.5 -85.5t-80 -51t-105.5 -35.5q-50 -15 -88.5 -29.5t-60.5 -35.5t-22 -55q0 -32 18 -49.5t51 -17.5q28 0 55.5 11.5t54.5 26t56 26t61 11.5q36 0 65.5 -21t29.5 -75v-16h-57v14q0 50 -47 50q-25 0 -48.5 -11t-49.5 -26t-55.5 -26t-66.5 -11
z" />
    <glyph glyph-name="khoKhuay-lao" unicode="&#xe84;" horiz-adv-x="592" 
d="M218 -10q-75 0 -113.5 41.5t-38.5 104.5q0 57 28.5 88.5t64.5 41.5v4q-35 12 -63 41.5t-28 85.5q0 77 58.5 118.5t162.5 41.5q103 0 161 -45.5t58 -145.5v-366h-57v373q0 72 -44.5 103.5t-120.5 31.5q-69 0 -115 -26t-46 -86q0 -51 34.5 -78.5t92.5 -27.5h29v-44h-29
q-33 0 -62.5 -10t-47.5 -33t-18 -64q0 -49 28 -74.5t74 -25.5q20 0 38 3.5t28 7.5l10 -47q-14 -5 -37.5 -9t-46.5 -4z" />
    <glyph glyph-name="ngoNgu-lao" unicode="&#xe87;" horiz-adv-x="374" 
d="M128 -160q-38 0 -73 7.5t-56 16.5v52q58 -28 120 -28q63 0 88.5 30.5t25.5 89.5v432q0 32 -23 50t-64 18q-46 0 -90 -22l-14 43q27 14 57.5 21t60.5 7q60 0 95 -27.5t35 -77.5v-451q0 -83 -43 -122t-119 -39z" />
    <glyph glyph-name="coCok-lao" unicode="&#xe88;" horiz-adv-x="554" 
d="M212 0l-34 214q-4 28 -15 40t-36 12q-11 0 -21 -2t-18 -4l-10 42q27 12 62 12q36 0 59.5 -19.5t31.5 -70.5l28 -177q89 0 129 52.5t40 174.5q0 124 -45 179t-151 55q-96 0 -176 -40v52q29 14 77 25.5t105 11.5q132 0 190 -71.5t58 -215.5q0 -86 -22 -146.5t-72 -92
t-136 -31.5h-44z" />
    <glyph glyph-name="soSang-lao" unicode="&#xe8a;" horiz-adv-x="580" 
d="M454 -160v182q0 41 -38 41q-24 0 -48.5 -11t-52 -25.5t-58.5 -25.5t-67 -11q-32 0 -60.5 12t-46 37t-17.5 65q0 51 28.5 80.5t76.5 48.5t107 37q54 17 93.5 32t60.5 36.5t21 58.5q0 58 -46.5 84.5t-116.5 26.5t-117.5 -26t-47.5 -81q0 -13 3.5 -24.5t8.5 -20.5l-47 -22
q-11 12 -16 31t-5 37q0 39 22 74.5t70.5 58t126.5 22.5q77 0 126 -22t72.5 -58.5t23.5 -79.5q0 -53 -30.5 -85.5t-80 -52t-105.5 -36.5q-48 -15 -87 -28.5t-61.5 -34.5t-22.5 -56q0 -32 18 -49.5t51 -17.5q28 0 56.5 11.5t57.5 26t58.5 26t61.5 11.5q34 0 59 -20t25 -69
v-183h-56z" />
    <glyph glyph-name="nyoNyung-lao" unicode="&#xe8d;" horiz-adv-x="588" 
d="M286 -10q-105 0 -161.5 44.5t-56.5 124.5q0 43 14.5 70t35.5 41t41 20v4q-19 6 -41 20.5t-37 40.5t-15 66q0 59 38.5 97.5t112.5 38.5q24 0 47 -4t38 -10l-10 -46q-12 4 -30 7.5t-38 3.5q-46 0 -73 -23.5t-27 -68.5q0 -39 19.5 -61.5t49 -31.5t59.5 -9h44v-43h-44
q-60 0 -93.5 -27.5t-33.5 -81.5q0 -64 44 -93.5t119 -29.5q70 0 114.5 30t44.5 105v374h57v-366q0 -100 -58.5 -146t-159.5 -46z" />
    <glyph glyph-name="doDek-lao" unicode="&#xe94;" horiz-adv-x="614" 
d="M264 -10q-72 0 -116.5 33.5t-65 94t-20.5 141.5q0 154 66.5 226t183.5 72q98 0 158 -48.5t60 -142.5v-366h-56v363q0 67 -40.5 106t-121.5 39q-100 0 -146 -63t-46 -185q0 -66 14.5 -116t47.5 -78.5t89 -28.5q30 0 51 8l8 -45q-14 -4 -30 -7t-36 -3z" />
    <glyph glyph-name="toTa-lao" unicode="&#xe95;" horiz-adv-x="626" 
d="M263 -10q-110 0 -155.5 77t-45.5 213q0 102 20.5 163t55 87.5t78.5 26.5q42 0 65 -19t33 -46h2q10 27 36 46t70 19q60 0 90 -39.5t30 -109.5v-408h-56v406q0 103 -75 103q-36 0 -53 -21.5t-23 -53.5h-40q-5 34 -23 54.5t-48 20.5q-47 0 -76 -54.5t-29 -176.5
q0 -118 34 -179.5t119 -61.5q17 0 30.5 2.5t25.5 5.5l8 -44q-28 -11 -73 -11z" />
    <glyph glyph-name="thoThong-lao" unicode="&#xe96;" horiz-adv-x="603" 
d="M462 -160v516q0 67 -29 109.5t-101 42.5q-47 0 -84.5 -20t-59 -54t-21.5 -76v-264q0 -32 11.5 -44.5t35.5 -12.5q9 0 18 2t18 5l9 -43q-28 -11 -58 -11q-43 0 -67 26.5t-24 81.5v280q0 50 -15.5 87t-36.5 61l42 31q34 -42 52 -105h2q30 48 77 76.5t109 28.5
q82 0 131 -48.5t49 -149.5v-519h-58z" />
    <glyph glyph-name="thoThung-lao" unicode="&#xe97;" horiz-adv-x="700" 
d="M230 -10q-80 0 -114 46t-34 119v393h56v-394q0 -56 21 -86.5t71 -30.5q48 0 69.5 30.5t21.5 86.5v238q0 73 33.5 119t113.5 46t114 -46t34 -119v-392h-56v393q0 56 -21 86.5t-71 30.5q-49 0 -70 -30.5t-21 -87.5v-237q0 -73 -34 -119t-113 -46z" />
    <glyph glyph-name="noNok-lao" unicode="&#xe99;" horiz-adv-x="604" 
d="M112 -10l-42 31q20 24 35.5 61t15.5 86v297q0 24 -9 34.5t-30 10.5q-11 0 -22 -3t-21 -7l-9 43q31 14 68 14q80 0 80 -93v-266q0 -70 40 -115.5t113 -45.5q66 0 99.5 39.5t33.5 109.5v362h56v-364q0 -94 -48 -144t-134 -50q-62 0 -104.5 26t-69.5 75h-2q-8 -30 -21 -55.5
t-29 -45.5z" />
    <glyph glyph-name="boBae-lao" unicode="&#xe9a;" horiz-adv-x="596" 
d="M297 -10q-113 0 -164 55t-51 146v357h56v-360q0 -70 39 -109.5t120 -39.5q82 0 120.5 39.5t38.5 109.5v360h56v-357q0 -91 -51 -146t-164 -55z" />
    <glyph glyph-name="poPa-lao" unicode="&#xe9b;" horiz-adv-x="596" 
d="M297 -10q-113 0 -164 55t-51 146v357h56v-360q0 -70 39 -109.5t120 -39.5q82 0 120.5 39t38.5 110v542h56v-539q0 -91 -51 -146t-164 -55z" />
    <glyph glyph-name="phoPhueng-lao" unicode="&#xe9c;" horiz-adv-x="705" 
d="M224 -10q-75 0 -108.5 45t-33.5 121v292q0 54 25.5 81.5t70.5 27.5q20 0 41 -5t37 -12l-12 -42q-10 4 -24.5 8.5t-29.5 4.5q-52 0 -52 -61v-301q0 -55 21.5 -83.5t70.5 -28.5q52 0 73 31t21 82v168h55v-168q0 -51 21.5 -82t73.5 -31q48 0 69 28.5t21 83.5v187
q0 49 -15 74.5t-49 25.5h-18v42h20q38 0 51 26.5t13 70.5v15h57v-15q0 -41 -12 -71.5t-46 -46.5v-3q34 -15 45.5 -44.5t11.5 -72.5v-181q0 -76 -34 -121t-108 -45q-91 0 -127 74h-3q-36 -74 -126 -74z" />
    <glyph glyph-name="foFon-lao" unicode="&#xe9d;" horiz-adv-x="705" 
d="M224 -10q-75 0 -108.5 45t-33.5 121v292q0 54 25.5 81.5t70.5 27.5q20 0 41 -5t37 -12l-12 -42q-10 4 -24.5 8.5t-29.5 4.5q-52 0 -52 -61v-301q0 -55 21.5 -83.5t70.5 -28.5q52 0 73 31t21 82v168h55v-168q0 -51 21.5 -82t73.5 -31q48 0 69 28.5t21 83.5v581h58v-574
q0 -76 -34 -121t-108 -45q-91 0 -127 74h-3q-36 -74 -126 -74z" />
    <glyph glyph-name="phoPhu-lao" unicode="&#xe9e;" horiz-adv-x="713" 
d="M220 -10q-64 0 -101 40t-37 122v396h56v-398q0 -58 24 -85.5t66 -27.5q50 0 75 31.5t25 85.5v394h56v-394q0 -54 24 -85.5t74 -31.5q44 0 67 27.5t23 85.5v398h58v-396q0 -82 -37 -122t-102 -40q-53 0 -85.5 24t-47.5 58h-4q-16 -34 -49 -58t-85 -24z" />
    <glyph glyph-name="foFai-lao" unicode="&#xe9f;" horiz-adv-x="713" 
d="M220 -10q-64 0 -101 40t-37 122v396h56v-398q0 -58 24 -85.5t66 -27.5q50 0 75 31.5t25 85.5v394h56v-394q0 -54 24 -85.5t74 -31.5q44 0 67 27.5t23 85.5v580h58v-578q0 -82 -37 -122t-102 -40q-53 0 -85.5 24t-47.5 58h-4q-16 -34 -49 -58t-85 -24z" />
    <glyph glyph-name="moMa-lao" unicode="&#xea1;" horiz-adv-x="606" 
d="M89 -10q-32 0 -60 10l9 43q9 -3 18 -5t18 -2q22 0 34 12.5t12 44.5v455h58v-354q0 -51 21 -86t56 -53t77 -18q65 0 99.5 39.5t34.5 109.5v362h57v-366q0 -96 -50.5 -144t-132.5 -48q-54 0 -97 22.5t-69 65.5h-2v-2q0 -86 -83 -86z" />
    <glyph glyph-name="yoYa-lao" unicode="&#xea2;" horiz-adv-x="593" 
d="M288 -10q-105 0 -162.5 44.5t-57.5 125.5q0 44 15 70.5t36 40.5t40 19v4q-19 6 -41 20.5t-37 40.5t-15 66q0 59 38.5 97.5t112.5 38.5q24 0 47 -4t38 -10l-10 -45q-10 4 -29 8t-39 4q-46 0 -73 -24.5t-27 -68.5q0 -39 19.5 -61.5t49 -32t59.5 -9.5h44v-43h-44
q-60 0 -93.5 -27.5t-33.5 -81.5q0 -63 45 -94t120 -31q71 0 116.5 31t45.5 106v556h58v-548q0 -100 -60 -146t-162 -46z" />
    <glyph glyph-name="roRot-lao" unicode="&#xea3;" horiz-adv-x="580" 
d="M289 -10q-79 0 -128.5 22t-72 57t-22.5 75q0 24 7 41t15 27l47 -21q-5 -8 -8.5 -19.5t-3.5 -27.5q0 -43 24.5 -66t62.5 -32t78 -9q46 0 83.5 11t60 37t22.5 71q0 43 -21.5 67.5t-63 39t-99.5 27.5q-39 9 -75.5 19t-65.5 25t-46 39t-17 63q0 64 53 92.5t147 28.5
q57 0 114 -9t109 -28v-48q-110 38 -220 38q-73 0 -109.5 -17t-36.5 -57q0 -31 20 -48.5t56.5 -28.5t86.5 -22q42 -9 82 -21t72 -31.5t51 -50.5t19 -78q0 -72 -52.5 -119t-168.5 -47z" />
    <glyph glyph-name="loLing-lao" unicode="&#xea5;" horiz-adv-x="614" 
d="M186 -10q-64 0 -95.5 40t-31.5 108q0 45 14.5 81.5t46 58.5t82.5 22q56 0 85.5 -27t43.5 -71l39 -124q8 -25 21 -35.5t35 -10.5q27 0 37.5 13.5t10.5 41.5v273q0 75 -48 112.5t-140 37.5q-50 0 -100.5 -10.5t-93.5 -29.5v50q32 14 88.5 25.5t113.5 11.5q105 0 170.5 -47
t65.5 -146v-265q0 -58 -26.5 -83.5t-77.5 -25.5q-45 0 -69.5 20.5t-38.5 61.5l-37 118q-10 30 -30 47t-52 17q-40 0 -63.5 -27.5t-23.5 -86.5q0 -107 84 -107q10 0 21 2t18 4l9 -40q-10 -4 -25.5 -6.5t-32.5 -2.5z" />
    <glyph glyph-name="woWi-lao" unicode="&#xea7;" horiz-adv-x="570" 
d="M266 -10q-98 0 -156 43.5t-58 118.5q0 15 3 25.5t7 21.5l54 -15q-6 -14 -6 -33q0 -50 39 -81t113 -31q94 0 138 56t44 179q0 88 -21.5 139.5t-64 74t-106.5 22.5q-51 0 -95 -11.5t-83 -30.5v52q33 16 80.5 26.5t101.5 10.5q79 0 134 -27.5t83.5 -89t28.5 -164.5
q0 -152 -62 -219t-174 -67z" />
    <glyph glyph-name="soSeua-lao" unicode="&#xeaa;" horiz-adv-x="626" 
d="M192 -10q-66 0 -98 41.5t-32 104.5q0 40 14 75.5t46 57t85 21.5q59 0 90 -27t45 -71l38 -114q8 -25 22 -35.5t36 -10.5q26 0 36 13.5t10 41.5v261q0 32 -9 58q-36 -29 -87.5 -46.5t-119.5 -17.5q-56 0 -99.5 12t-69 36t-25.5 58q0 45 50 77t152 32q70 0 121.5 -16.5
t84.5 -46.5q11 26 11 54v12h55v-10q0 -53 -31 -99q25 -44 25 -102v-250q0 -58 -27 -83.5t-77 -25.5q-46 0 -71 20.5t-39 61.5l-35 108q-20 64 -88 64q-41 0 -65.5 -25t-24.5 -81q0 -103 83 -103q25 0 40 6l10 -42q-11 -4 -25.5 -6.5t-30.5 -2.5zM126 448q0 -32 41.5 -47
t98.5 -15q66 0 112 17t73 45q-26 32 -72 48t-107 16q-64 0 -105 -17t-41 -47z" />
    <glyph glyph-name="hoHaan-lao" unicode="&#xeab;" horiz-adv-x="700" 
d="M230 -10q-80 0 -114 45t-34 115v398h56v-400q0 -109 92 -109q91 0 91 109v262q0 74 -47 118l41 29q17 -17 30 -38.5t20 -47.5h3q18 40 51 63t79 23q63 0 90.5 -40.5t27.5 -106.5v-410h-56v402q0 49 -18 77.5t-62 28.5q-54 0 -78.5 -40t-24.5 -100v-218q0 -70 -33.5 -115
t-113.5 -45z" />
    <glyph glyph-name="oO-lao" unicode="&#xead;" horiz-adv-x="606" 
d="M298 -10q-64 0 -115.5 19t-82 55.5t-30.5 87.5q0 16 4 27.5t9 19.5l49 -14q-7 -15 -7 -33q0 -34 22.5 -59.5t61.5 -39.5t87 -14q190 0 190 233q0 15 -1 29q-40 -25 -96.5 -38.5t-111.5 -13.5q-101 0 -157 42.5t-56 108.5q0 43 24.5 78.5t73 57t120.5 21.5
q120 0 191 -68.5t71 -218.5q0 -147 -67 -213.5t-179 -66.5zM118 400q0 -46 43 -75t118 -29q34 0 71 6.5t71 19t58 32.5q-15 75 -62.5 114.5t-130.5 39.5q-76 0 -122 -30t-46 -78z" />
    <glyph glyph-name="hoHeuan-lao" unicode="&#xeae;" horiz-adv-x="577" 
d="M284 -10q-114 0 -167 45t-53 109q0 23 6.5 40t15.5 28l47 -22q-6 -9 -9.5 -20t-3.5 -26q0 -40 22 -63t59.5 -32.5t82.5 -9.5q75 0 121.5 25.5t46.5 89.5q0 42 -21 64.5t-63.5 37t-105.5 30.5q-54 14 -99 30t-72 44t-27 79q0 61 40 89.5t96 28.5q36 0 65.5 -9t54 -21.5
t47 -21.5t44.5 -9q41 0 41 36v16h56v-17q0 -44 -27 -63.5t-63 -19.5q-38 0 -72 15l-69 30t-75 15q-34 0 -58 -16t-24 -53q0 -33 19 -51.5t55 -30t86 -24.5q44 -11 84.5 -23.5t73 -31.5t51.5 -49t19 -75q0 -46 -23.5 -83t-73 -59t-127.5 -22z" />
    <glyph glyph-name="khmuGo-lao" unicode="&#xede;" horiz-adv-x="624" 
d="M101 -8q-30 0 -58 11l9 43q9 -3 17.5 -5t18.5 -2q21 0 33.5 12t12.5 45v282q0 50 -15.5 87t-35.5 61l41 31q34 -42 52 -105h2q28 46 74 75.5t114 29.5q173 0 173 -198v-89h71v-46h-71v-224h-57v224h-100q-46 0 -66 20.5t-20 47.5q0 30 12 52l46 -9q-3 -5 -4.5 -14.5
t-1.5 -17.5q0 -14 8.5 -23.5t29.5 -9.5h96v86q0 44 -10.5 78.5t-37.5 54t-76 19.5q-48 0 -86 -20t-59.5 -54t-21.5 -76v-258q0 -54 -23.5 -81t-66.5 -27z" />
    <glyph glyph-name="khmuNyo-lao" unicode="&#xedf;" horiz-adv-x="592" 
d="M286 -10q-105 0 -161.5 44.5t-56.5 124.5q0 43 14.5 70t35.5 41t41 20v4q-19 6 -41 20.5t-37 40.5t-15 66q0 59 38.5 97.5t112.5 38.5q24 0 47 -4t38 -10l-10 -45q-10 3 -29 6.5t-38 3.5q-47 0 -74 -23t-27 -67q0 -40 19 -62.5t44.5 -32t44.5 -9.5h22v-43h-22
q-44 0 -75.5 -27.5t-31.5 -82.5q0 -62 44.5 -92t118.5 -30q70 0 114.5 30t44.5 105v66h-57q-45 0 -65.5 20t-20.5 48q0 12 4 26.5t8 23.5l46 -8q-6 -14 -6 -32q0 -15 8.5 -23.5t29.5 -8.5h53v262h57v-262h75v-46h-75v-58q0 -100 -58.5 -146t-159.5 -46z" />
    <glyph glyph-name="aVowel-lao" unicode="&#xeb0;" horiz-adv-x="355" 
d="M136 358q-46 0 -66 21t-20 49q0 12 3.5 27t9.5 25h51q-10 -20 -10 -42q0 -33 36 -33h153v-47h-157zM136 66q-46 0 -66 21t-20 49q0 12 3.5 27t9.5 25h51q-10 -20 -10 -42q0 -32 36 -32h153v-48h-157z" />
    <glyph glyph-name="aaVowel-lao" unicode="&#xeb2;" horiz-adv-x="335" 
d="M194 0v432q0 39 -17.5 58.5t-59.5 19.5q-29 0 -54 -7.5t-40 -14.5l-10 45q19 8 50 16t63 8q57 0 91.5 -29t34.5 -88v-440h-58z" />
    <glyph glyph-name="amVowel-lao" unicode="&#xeb3;" horiz-adv-x="335" 
d="M-143 624q-47 0 -74.5 26t-27.5 70t27.5 70.5t74.5 26.5t75 -26.5t28 -70.5t-28 -70t-75 -26zM-143 663q29 0 44.5 15.5t15.5 41.5t-15.5 42t-43.5 16q-30 0 -45 -16t-15 -42t15 -41.5t44 -15.5zM194 0v432q0 39 -17.5 58.5t-59.5 19.5q-29 0 -54 -7.5t-40 -14.5l-10 45
q19 8 50 16t63 8q57 0 91.5 -29t34.5 -88v-440h-58z" />
    <glyph glyph-name="nyoVowel-lao" unicode="&#xebd;" horiz-adv-x="550" 
d="M260 -221q-60 0 -107.5 17t-75 50t-27.5 80q0 33 19 61l50 -23q-5 -8 -8.5 -18t-3.5 -23q0 -43 41.5 -69t108.5 -26q163 0 163 161v152q0 43 -23.5 72t-63.5 48.5t-89 34.5l-74 22t-64.5 26t-45.5 38.5t-17 61.5q0 40 19 65t50.5 36.5t67.5 11.5q37 0 65.5 -9t51 -21.5
t43 -21.5t41.5 -9q39 0 39 36v16h57v-17q0 -44 -26.5 -63.5t-62.5 -19.5q-28 0 -52.5 9t-49 21t-50.5 21t-56 9q-34 0 -57.5 -15t-23.5 -47q0 -34 24 -51.5t63.5 -29l84.5 -25.5q51 -16 98 -39t77 -61t30 -97v-154q0 -59 -21 -107t-68.5 -75.5t-126.5 -27.5z" />
    <glyph glyph-name="eVowel-lao" unicode="&#xec0;" horiz-adv-x="268" 
d="M178 -10q-41 0 -68.5 22t-27.5 80v458h56v-454q0 -32 11.5 -45t38.5 -13q22 0 49 11l9 -43q-16 -8 -33 -12t-35 -4z" />
    <glyph glyph-name="aeVowel-lao" unicode="&#xec1;" horiz-adv-x="500" 
d="M408 -10q-40 0 -68 22.5t-28 79.5v458h58v-454q0 -32 11 -45t37 -13q14 0 25.5 3t24.5 8l9 -43q-17 -8 -34 -12t-35 -4zM178 -10q-41 0 -68.5 22t-27.5 80v458h56v-454q0 -32 11.5 -45t38.5 -13q22 0 49 11l9 -43q-16 -8 -33 -12t-35 -4z" />
    <glyph glyph-name="oVowel-lao" unicode="&#xec2;" horiz-adv-x="312" 
d="M212 -10q-41 0 -68.5 22.5t-27.5 79.5v436q0 29 -12 50t-30 38l-36 34t-30 38t-12 51q0 43 31 71.5t97 28.5h148v-45h-145q-44 0 -60.5 -19.5t-16.5 -39.5q0 -21 12.5 -38t30.5 -33.5t36 -36t30.5 -45.5t12.5 -62v-424q0 -32 11.5 -45t38.5 -13q22 0 49 11l9 -43
q-16 -8 -33 -12t-35 -4z" />
    <glyph glyph-name="ayMaiMuanVowel-lao" unicode="&#xec3;" horiz-adv-x="310" 
d="M210 -10q-40 0 -68 22.5t-28 79.5v410q0 43 17 73t40 54.5t40 48t17 53.5q0 31 -23 51.5t-65 20.5q-40 0 -65 -18.5t-25 -52.5v-18h-55v18q0 40 21.5 66.5t55 40t68.5 13.5q36 0 69 -14t54 -41t21 -67q0 -37 -17 -63t-39.5 -48.5t-39.5 -49t-17 -64.5v-409
q0 -32 11.5 -45t37.5 -13q13 0 24.5 3t25.5 8l8 -43q-16 -8 -33 -12t-35 -4z" />
    <glyph glyph-name="aiMaiMayVowel-lao" unicode="&#xec4;" horiz-adv-x="324" 
d="M220 -10q-40 0 -68 22t-28 80v440q0 72 17.5 123t43.5 84t51 51v4h-234l17 45h277v-58q-52 -35 -83.5 -90t-31.5 -145v-450q0 -32 11.5 -45t37.5 -13q13 0 24.5 3t25.5 8l8 -43q-16 -8 -33 -12t-35 -4z" />
    <glyph glyph-name="amVowel-lao.narrow" horiz-adv-x="335" 
d="M-317 624q-47 0 -74.5 26t-27.5 70t27.5 70t74.5 26t75 -26t28 -70t-28 -70t-75 -26zM-317 662q29 0 44.5 16t15.5 42t-15.5 42t-43.5 16q-30 0 -45 -16t-15 -42t15 -42t44 -16zM194 0v432q0 39 -17.5 58.5t-59.5 19.5q-29 0 -54 -7.5t-40 -14.5l-10 45q19 8 50 16t63 8
q57 0 91.5 -29t34.5 -88v-440h-58z" />
    <glyph glyph-name="hoNo-lao" unicode="&#xedc;" horiz-adv-x="940" 
d="M229 -10q-75 0 -111 42.5t-36 117.5v398h56v-400q0 -109 92 -109q91 0 91 109v264q0 34 -13 66t-34 54l42 28q16 -17 28.5 -38.5t20.5 -49.5h3q18 42 51.5 63.5t78.5 21.5q65 0 92 -39.5t27 -107.5v-231q0 -62 26 -101t77 -39q44 0 62 30t18 83v396h56v-398
q0 -74 -29 -117t-96 -43q-97 0 -133 98h-2q-13 -60 -46 -98l-42 31q24 27 38.5 65t14.5 82v234q0 50 -18 78t-63 28q-52 0 -77.5 -38t-25.5 -99v-221q0 -75 -36.5 -117.5t-111.5 -42.5z" />
    <glyph glyph-name="hoMo-lao" unicode="&#xedd;" horiz-adv-x="950" 
d="M229 -10q-75 0 -111 42.5t-36 117.5v398h56v-400q0 -109 92 -109q91 0 91 109v264q0 34 -13 66t-34 54l42 28q33 -33 49 -88h3q35 85 132 85q69 0 98.5 -39.5t29.5 -107.5v-226q0 -66 25 -105.5t77 -39.5q44 0 62 28.5t18 80.5v400h57v-396q0 -75 -29.5 -118.5
t-97.5 -43.5q-43 0 -72.5 19t-47.5 61h-2v-8q0 -34 -22 -53t-58 -19q-73 0 -88 75l44 11q6 -21 17 -30t26 -9q35 0 35 38v327q0 48 -21 77t-67 29q-52 0 -79.5 -38t-27.5 -99v-221q0 -75 -36.5 -117.5t-111.5 -42.5z" />
    <glyph glyph-name="zero-lao" unicode="&#xed0;" horiz-adv-x="602" 
d="M301 -10q-72 0 -124.5 28.5t-80.5 91t-28 164.5q0 152 62.5 217.5t170.5 65.5t170.5 -65.5t62.5 -217.5q0 -102 -28 -164.5t-80.5 -91t-124.5 -28.5zM301 39q90 0 132.5 57.5t42.5 177.5t-42.5 177t-132.5 57q-89 0 -132.5 -57t-43.5 -177t43.5 -177.5t132.5 -57.5z" />
    <glyph glyph-name="one-lao" unicode="&#xed1;" horiz-adv-x="569" 
d="M273 -10q-45 0 -90.5 10t-84.5 29v52q42 -19 83.5 -30.5t85.5 -11.5q95 0 138 57.5t43 183.5q0 116 -39 172t-133 56q-75 0 -113.5 -33t-38.5 -95q0 -56 30 -83.5t85 -27.5q19 0 31 2l-7 -47q-9 -3 -31 -3q-75 0 -120.5 43t-45.5 118q0 58 27.5 97t76 58.5t110.5 19.5
q111 0 168.5 -65.5t57.5 -213.5q0 -153 -60 -220.5t-173 -67.5z" />
    <glyph glyph-name="two-lao" unicode="&#xed2;" horiz-adv-x="570" 
d="M300 -10q-67 0 -118.5 26.5t-81 85t-29.5 153.5q0 85 23 141.5t60.5 93t80.5 62.5q31 20 64.5 36.5t61.5 34.5t45.5 39.5t17.5 49.5v18h52v-17q0 -36 -17.5 -62t-46.5 -46.5t-65.5 -40.5t-74.5 -44q-46 -30 -78 -63.5t-48.5 -81t-16.5 -117.5q0 -119 46 -169t127 -50
q74 0 112 36t38 98q0 53 -29 81t-93 28h-10t-11 -1l11 51q95 0 142.5 -41t47.5 -118q0 -61 -27.5 -101.5t-75 -61t-107.5 -20.5z" />
    <glyph glyph-name="three-lao" unicode="&#xed3;" horiz-adv-x="597" 
d="M87 -10q-28 0 -58 11l9 42q18 -6 36 -6q22 0 34 12t12 45v326h58v-226q0 -75 44.5 -115t107.5 -40q61 0 93.5 36t32.5 105v148q0 63 -38 99t-106 69l-85.5 44t-63 43.5t-23.5 58.5q0 38 26 56.5t63 18.5q11 0 26 -2t33 -8l208 -72v-47l-216 76q-28 9 -46 9
q-20 0 -31.5 -8.5t-11.5 -27.5q0 -28 38.5 -47l106.5 -52q53 -24 93 -51t62.5 -64t22.5 -91v-155q0 -97 -49.5 -142t-130.5 -45q-45 0 -88.5 21t-71.5 68h-2v-6q0 -43 -24 -63t-61 -20z" />
    <glyph glyph-name="four-lao" unicode="&#xed4;" horiz-adv-x="624" 
d="M258 -10q-87 0 -134 49t-47 150v121q0 70 16 114.5t43 71t60.5 39t69 16.5t68.5 6q32 2 59 6.5t47 18.5t31 43.5t11 80.5v16h52v-16q0 -68 -18.5 -107t-48 -57.5t-63.5 -24.5t-65 -8q-43 -3 -80.5 -8.5t-65.5 -24t-43.5 -57.5t-15.5 -109v-118q0 -81 34 -117t98 -36
q68 0 104 39.5t36 113.5v86q0 52 25 74t64 22q31 0 61 -11l-9 -43q-19 6 -39 6q-22 0 -34 -11t-12 -41v-112q0 -49 21.5 -83.5t42.5 -58.5l-42 -30q-17 20 -34 46t-26 56h-2q-27 -51 -65.5 -76.5t-98.5 -25.5z" />
    <glyph glyph-name="five-lao" unicode="&#xed5;" horiz-adv-x="624" 
d="M258 -10q-87 0 -134 49t-47 150v121q0 77 20 123.5t49.5 70t57.5 32.5q-30 26 -30 73q0 46 27.5 71.5t72.5 25.5q44 0 71 -27.5t27 -69.5q0 -28 -13 -51q40 3 67.5 15.5t41.5 43.5t14 89v16h52v-16q0 -68 -18.5 -107t-48 -57.5t-63.5 -24.5t-65 -8q-43 -3 -80.5 -8.5
t-65.5 -24t-43.5 -57.5t-15.5 -109v-118q0 -81 34 -117t98 -36q68 0 104 39.5t36 113.5v86q0 52 25 74t64 22q31 0 61 -11l-9 -43q-19 6 -39 6q-22 0 -34 -11t-12 -41v-112q0 -49 21.5 -83.5t42.5 -58.5l-42 -30q-17 20 -34 46t-26 56h-2q-27 -51 -65.5 -76.5t-98.5 -25.5z
M273 554q23 0 39 15t16 39t-15.5 39.5t-39.5 15.5q-25 0 -40.5 -14.5t-15.5 -40.5q0 -25 15.5 -39.5t40.5 -14.5z" />
    <glyph glyph-name="six-lao" unicode="&#xed6;" horiz-adv-x="608" 
d="M195 -10q-62 0 -92.5 42.5t-30.5 117.5v198q0 56 26.5 80t64.5 24q20 0 41 -5.5t36 -12.5l-11 -44q-11 6 -25 10t-28 4q-22 0 -35 -14t-13 -45v-197q0 -54 17.5 -81.5t58.5 -27.5q39 0 56.5 25.5t17.5 69.5v167h50v-167q0 -44 18 -69.5t58 -25.5t57 27.5t17 81.5v180
q0 64 -38.5 100t-106.5 68l-85 43.5t-63 43t-24 59.5q0 38 25.5 56.5t63.5 18.5q12 0 27 -2.5t33 -8.5l208 -71v-47l-217 76q-13 4 -25 6t-20 2q-19 0 -31 -8t-12 -28q0 -28 38.5 -46.5l106.5 -51.5q53 -24 93 -51t62 -64t22 -91v-182q0 -75 -30.5 -117.5t-92.5 -42.5
q-44 0 -69 20t-39 54h-2q-14 -34 -39 -54t-68 -20z" />
    <glyph glyph-name="seven-lao" unicode="&#xed7;" horiz-adv-x="622" 
d="M482 -160v516q0 44 -10.5 78.5t-37.5 54t-76 19.5q-48 0 -86 -20t-59.5 -54t-21.5 -76v-260q0 -54 -23.5 -81t-66.5 -27q-30 0 -58 11l9 43q9 -3 17.5 -5t18.5 -2q21 0 33.5 12t12.5 45v284q0 50 -15.5 87t-35.5 61l41 31q34 -42 52 -105h2q28 46 74 75.5t114 29.5
q173 0 173 -198v-519h-57z" />
    <glyph glyph-name="eight-lao" unicode="&#xed8;" horiz-adv-x="622" 
d="M218 -172q-34 0 -53 18t-19 46q0 33 25 54.5t67 40.5l243 112v307q0 102 -75 102q-36 0 -53 -21t-23 -53h-40q-4 35 -22.5 54.5t-51.5 19.5q-46 0 -71.5 -42t-25.5 -146q0 -82 15.5 -126.5t41.5 -62t57 -17.5q15 0 27 2.5t22 5.5l8 -42q-14 -6 -32 -10t-38 -4
q-43 0 -79 22.5t-57.5 77t-21.5 150.5q0 92 19.5 144.5t53 74.5t75.5 22t65 -18t34 -47h3q10 27 35.5 46t70.5 19q59 0 89.5 -39.5t30.5 -109.5v-313q0 -37 -16 -66.5t-42 -56.5q21 -8 34.5 -26t13.5 -42q0 -32 -22 -53.5t-54 -21.5q-28 0 -48.5 19.5t-23.5 47.5
q-39 -30 -82.5 -49t-79.5 -19zM222 -128q27 0 65 16.5t76.5 43.5t69 58.5t41.5 61.5l-232 -108q-27 -14 -38.5 -25t-11.5 -25q0 -22 30 -22zM454 -136q16 0 28 12t12 28t-12 27t-28 11t-27.5 -11t-11.5 -27t11.5 -28t27.5 -12z" />
    <glyph glyph-name="nine-lao" unicode="&#xed9;" horiz-adv-x="752" 
d="M218 -10q-81 0 -117.5 69t-36.5 204q0 111 22.5 175t64 91.5t99.5 27.5q76 0 116 -40.5t40 -125.5v-230q0 -59 25 -90.5t77 -31.5t78 31.5t26 90.5v387h56v-386q0 -85 -38.5 -128.5t-119.5 -43.5q-84 0 -122 45.5t-38 126.5v224q0 58 -22 90t-77 32q-41 0 -70 -23.5
t-44 -77.5t-15 -145q0 -105 23.5 -165t86.5 -60q22 0 40 7l10 -43q-28 -11 -64 -11z" />
    <glyph glyph-name="koLa-lao" unicode="&#xec6;" horiz-adv-x="611" 
d="M450 -160v600q0 32 -12 50t-44 18t-52 -17.5t-35 -45.5h-29q-14 26 -33.5 44.5t-50.5 18.5q-64 0 -64 -81q0 -44 19.5 -63.5t54.5 -19.5q10 0 21.5 1.5t19.5 4.5l9 -42q-12 -6 -29 -9t-33 -3q-55 0 -87.5 33.5t-32.5 97.5q0 61 30 95.5t80 34.5q38 0 65 -17.5t45 -48.5h2
q18 31 45 48.5t65 17.5q46 0 74.5 -28t28.5 -82v-607h-57z" />
    <glyph glyph-name="ellipsis-lao" unicode="&#xeaf;" horiz-adv-x="539" 
d="M398 0v428h-3q-20 -28 -60 -45t-93 -17q-80 0 -124 42t-44 127v13h58v-14q0 -62 30 -90t91 -28q67 0 108.5 32t41.5 94v6h53v-548h-58z" />
    <glyph glyph-name="kip" unicode="&#x20ad;" horiz-adv-x="576" 
d="M100 0v352h-84v45h84v317h58v-317h37l274 317h71l-280 -317h248v-45h-241l281 -352h-70l-278 352h-42v-352h-58z" />
    <glyph glyph-name="maiKanVowel-lao" unicode="&#xeb1;" 
d="M-234 642q-84 0 -84 68q0 30 12 52h51q-9 -18 -9 -38q0 -16 10 -26t34 -10h264v-46h-278z" />
    <glyph glyph-name="iVowel-lao" unicode="&#xeb4;" 
d="M-366 627q-33 0 -63.5 11.5t-49.5 34.5t-19 56q0 39 27.5 65.5t74 40t102.5 13.5t102.5 -13.5t74 -40t27.5 -65.5q0 -34 -19.5 -56.5t-50 -34t-62.5 -11.5l-10 37q12 0 33 5.5t37.5 20t16.5 40.5q0 38 -40 57t-109 19t-109.5 -19t-40.5 -57q0 -26 17 -40.5t38 -20
t33 -5.5z" />
    <glyph glyph-name="iiVowel-lao" unicode="&#xeb5;" 
d="M-366 627q-33 0 -63.5 11.5t-49.5 34.5t-19 56q0 39 27.5 65.5t73 40t100.5 13.5t101 -13.5t73.5 -39.5t27.5 -63q0 -26 -16 -41.5t-39 -25.5v-2q12 3 27.5 4t25.5 1h41v-41h-178l-10 37q12 0 34.5 6t41 21t18.5 41q0 36 -39.5 55t-106.5 19q-68 0 -108 -19t-40 -57
q0 -26 17 -40.5t38 -20t33 -5.5z" />
    <glyph glyph-name="euVowel-lao" unicode="&#xeb6;" 
d="M-366 627q-33 0 -63.5 11.5t-49.5 34.5t-19 56q0 39 27.5 65.5t74 40t102.5 13.5t102.5 -13.5t74 -40t27.5 -65.5q0 -34 -19.5 -56.5t-50 -34t-62.5 -11.5l-10 37q12 0 33 5.5t37.5 20t16.5 40.5q0 38 -40 57t-109 19t-109.5 -19t-40.5 -57q0 -26 17 -40.5t38 -20
t33 -5.5zM-294 692q-16 0 -26 9t-10 25t10 25t26 9q15 0 25 -9t10 -25t-10 -25t-25 -9z" />
    <glyph glyph-name="euuVowel-lao" unicode="&#xeb7;" 
d="M-366 627q-33 0 -63.5 11.5t-49.5 34.5t-19 56q0 39 27.5 65.5t73 40t100.5 13.5t101 -13.5t73.5 -39.5t27.5 -63q0 -26 -16 -41.5t-39 -25.5v-2q12 3 27.5 4t25.5 1h41v-41h-178l-10 37q12 0 34.5 6t41 21t18.5 41q0 36 -39.5 55t-106.5 19q-68 0 -108 -19t-40 -57
q0 -26 17 -40.5t38 -20t33 -5.5zM-299 692q-16 0 -26 9t-10 25t10 25t26 9t25.5 -9t9.5 -25t-9.5 -25t-25.5 -9z" />
    <glyph glyph-name="maiKonVowel-lao" unicode="&#xebb;" 
d="M-306 637q-12 19 -12 51q0 68 84 68h278v-46h-265q-24 0 -34 -10t-10 -26q0 -19 9 -37h-50z" />
    <glyph glyph-name="uVowel-lao" unicode="&#xeb8;" 
d="M-133 -272v120q0 16 -7 22t-21 6q-7 0 -14.5 -1t-13.5 -3l-9 38q9 4 23.5 7t28.5 3q28 0 45 -15t17 -49v-128h-49z" />
    <glyph glyph-name="uuVowel-lao" unicode="&#xeb9;" 
d="M-196 -274q-112 0 -112 94v36q0 20 -20 20q-6 0 -18 -3l-4 41q9 3 20 4.5t20 1.5q54 0 54 -50v-47q0 -25 13.5 -40t46.5 -15q60 0 60 55v94h52v-93q0 -47 -27.5 -72.5t-84.5 -25.5z" />
    <glyph glyph-name="loVowel-lao" unicode="&#xebc;" 
d="M-406 -188q-12 21 -12 46q0 66 82 66q33 0 60.5 -9l53.5 -17.5t56 -8.5q43 0 83 23v-47q-38 -23 -84 -23q-31 0 -58 9l-51.5 17.5t-49.5 8.5q-36 0 -36 -29q0 -16 10 -36h-54z" />
    <glyph glyph-name="maiEk-lao" unicode="&#xec8;" 
d="M-140 637v179h56v-179h-56z" />
    <glyph glyph-name="maiTho-lao" unicode="&#xec9;" 
d="M-320 637v29q44 7 72 28.5t28 53.5q0 20 -11.5 32t-33.5 12q-13 0 -24.5 -4t-20.5 -10l-14 34q16 10 35 14.5t37 4.5q39 0 61.5 -20t22.5 -53q0 -22 -11 -43t-31 -33h198v-45h-308z" />
    <glyph glyph-name="maiTi-lao" unicode="&#xeca;" 
d="M-334 633q-40 0 -64 23.5t-24 67.5t25 69t65 27l62 -37l60 37q42 -4 67.5 -26t25.5 -57q0 -36 -21 -59h108v-41h-182v27q22 4 34 21t12 39q0 24 -13 37t-32 17l-53 -29h-12l-53 29q-19 -2 -32 -14.5t-13 -39.5t13.5 -41.5t34.5 -14.5q6 0 12 1t10 3l7 -32q-14 -7 -37 -7z
" />
    <glyph glyph-name="maiCatawa-lao" unicode="&#xecb;" 
d="M-198 637v76h-86v42h86v78h55v-78h87v-42h-87v-76h-55z" />
    <glyph glyph-name="karan-lao" unicode="&#xecc;" 
d="M-254 630q-22 25 -22 65q0 37 23 59t67 22h156v-46h-140q-24 0 -36.5 -12t-12.5 -32q0 -13 5.5 -25.5t13.5 -22.5z" />
    <glyph glyph-name="niggahita-lao" unicode="&#xecd;" 
d="M-299 624q-47 0 -74.5 26t-27.5 70t27.5 70.5t74.5 26.5t75 -26.5t28 -70.5t-28 -70t-75 -26zM-299 663q29 0 44.5 15.5t15.5 41.5t-15.5 42t-43.5 16q-30 0 -45 -16t-15 -42t15 -41.5t44 -15.5z" />
    <glyph glyph-name="niggahita_maiEk-lao" 
d="M-299 624q-47 0 -74.5 26t-27.5 70t27.5 70.5t74.5 26.5t75 -26.5t28 -70.5t-28 -70t-75 -26zM-299 663q29 0 44.5 15.5t15.5 41.5t-15.5 42t-43.5 16q-30 0 -45 -16t-15 -42t15 -41.5t44 -15.5zM-324 889v149h51v-149h-51z" />
    <glyph glyph-name="niggahita_maiTho-lao" 
d="M-299 624q-47 0 -74.5 26t-27.5 70t27.5 70.5t74.5 26.5t75 -26.5t28 -70.5t-28 -70t-75 -26zM-299 663q29 0 44.5 15.5t15.5 41.5t-15.5 42t-43.5 16q-30 0 -45 -16t-15 -42t15 -41.5t44 -15.5zM-422 889v29q44 8 71 26t27 44q0 16 -12 24.5t-30 8.5q-22 0 -48 -13
l-12 34q33 18 74 18q35 0 56 -17t21 -45q0 -20 -11 -38t-28 -28h180v-43h-288z" />
    <glyph glyph-name="niggahita_maiTi-lao" 
d="M-299 624q-47 0 -74.5 26t-27.5 70t27.5 70.5t74.5 26.5t75 -26.5t28 -70.5t-28 -70t-75 -26zM-299 663q29 0 44.5 15.5t15.5 41.5t-15.5 42t-43.5 16q-30 0 -45 -16t-15 -42t15 -41.5t44 -15.5zM-369 884q-38 0 -57.5 24t-19.5 59q0 36 21 60t60 26l56 -35l54 35
q32 -4 55 -22t23 -52q0 -32 -16 -51h91v-39h-158v27q18 4 29 19t11 34q0 39 -34 47l-52 -32h-5l-54 32q-38 -6 -38 -48q0 -21 11 -34.5t32 -13.5q10 0 20 4l7 -32q-6 -3 -16 -5.5t-20 -2.5z" />
    <glyph glyph-name="niggahita_maiCatawa-lao" 
d="M-299 624q-47 0 -74.5 26t-27.5 70t27.5 70.5t74.5 26.5t75 -26.5t28 -70.5t-28 -70t-75 -26zM-299 663q29 0 44.5 15.5t15.5 41.5t-15.5 42t-43.5 16q-30 0 -45 -16t-15 -42t15 -41.5t44 -15.5zM-324 889v63h-76v42h76v62h50v-62h75v-42h-75v-63h-50z" />
    <glyph glyph-name="maiEk-lao.small" 
d="M-138 919v149h51v-149h-51z" />
    <glyph glyph-name="maiTho-lao.small" 
d="M-254 919v29q44 8 71 26t27 44q0 16 -12 24.5t-30 8.5q-22 0 -48 -13l-12 34q33 18 74 18q35 0 56 -17t21 -45q0 -20 -11 -38t-28 -28h180v-43h-288z" />
    <glyph glyph-name="maiTi-lao.small" 
d="M-212 914q-38 0 -57.5 24t-19.5 59q0 36 21 60t60 26l56 -35l54 35q32 -4 55 -22t23 -52q0 -32 -16 -51h91v-39h-158v27q18 4 29 19t11 34q0 39 -34 47l-52 -32h-5l-54 32q-38 -6 -38 -48q0 -21 11 -34.5t32 -13.5q10 0 20 4l7 -32q-6 -3 -16 -5.5t-20 -2.5z" />
    <glyph glyph-name="maiCatawa-lao.small" 
d="M-136 919v63h-76v42h76v62h50v-62h75v-42h-75v-63h-50z" />
    <glyph glyph-name="karan-lao.small" 
d="M-220 914q-14 23 -14 55q0 26 18 46.5t64 20.5h140v-46h-126q-20 0 -30.5 -7t-10.5 -25t10 -38z" />
    <glyph glyph-name="maiKanVowel-lao.narrow" 
d="M-416 642q-44 0 -64.5 17.5t-20.5 50.5q0 31 13 52h50q-10 -17 -10 -38q0 -16 10 -26t34 -10h217v-46h-229z" />
    <glyph glyph-name="iVowel-lao.narrow" 
d="M-430 627q-35 0 -65 12t-48.5 35t-18.5 56q0 56 54 87t136 31t135 -31t53 -87q0 -50 -39 -76.5t-93 -26.5l-8 35q32 2 59.5 18.5t27.5 49.5q0 37 -38.5 56.5t-96.5 19.5t-97 -19.5t-39 -56.5q0 -32 27.5 -49t60.5 -19z" />
    <glyph glyph-name="iiVowel-lao.narrow" 
d="M-440 627q-35 0 -65 12t-48.5 35t-18.5 56q0 56 54 87t136 31t135 -30t53 -82q0 -27 -16 -44t-41 -27v-2q25 5 53 5h41v-41h-173l-10 37q21 2 42.5 9.5t36 22t14.5 36.5q0 35 -38.5 54.5t-96.5 19.5t-97 -19.5t-39 -56.5q0 -32 27.5 -49t60.5 -19z" />
    <glyph glyph-name="euVowel-lao.narrow" 
d="M-430 627q-35 0 -65 12t-48.5 35t-18.5 56q0 56 54 87t136 31t135 -31t53 -87q0 -50 -39 -76.5t-93 -26.5l-8 35q32 2 59.5 18.5t27.5 49.5q0 37 -38.5 56.5t-96.5 19.5t-97 -19.5t-39 -56.5q0 -32 27.5 -49t60.5 -19zM-372 692q-15 0 -25.5 9.5t-10.5 24.5t10.5 24.5
t25.5 9.5q14 0 24 -9.5t10 -24.5t-10 -24.5t-24 -9.5z" />
    <glyph glyph-name="euuVowel-lao.narrow" 
d="M-440 627q-35 0 -65 12t-48.5 35t-18.5 56q0 56 54 87t136 31t135 -30t53 -82q0 -27 -16 -44t-41 -27v-2q25 5 53 5h41v-41h-173l-10 37q21 2 42.5 9.5t36 22t14.5 36.5q0 35 -38.5 54.5t-96.5 19.5t-97 -19.5t-39 -56.5q0 -32 27.5 -49t60.5 -19zM-382 692
q-15 0 -25.5 9.5t-10.5 24.5t10.5 24.5t25.5 9.5q14 0 24 -9.5t10 -24.5t-10 -24.5t-24 -9.5z" />
    <glyph glyph-name="maiKonVowel-lao.narrow" 
d="M-488 637q-13 19 -13 50q0 28 18.5 48t66.5 20h229v-47h-217q-42 0 -42 -32q0 -9 2 -20.5t6 -18.5h-50z" />
    <glyph glyph-name="maiEk-lao.narrow" 
d="M-328 637v179h58v-179h-58z" />
    <glyph glyph-name="maiTho-lao.narrow" 
d="M-456 637v29q44 7 72 28.5t28 53.5q0 20 -11.5 32t-33.5 12q-13 0 -24.5 -4t-20.5 -10l-14 34q16 10 35 14.5t37 4.5q39 0 60.5 -20t21.5 -53q0 -47 -41 -76h141v-45h-250z" />
    <glyph glyph-name="maiTi-lao.narrow" 
d="M-420 633q-40 0 -64 23.5t-24 67.5t25 69t66 27l54 -37l51 37q43 -4 68.5 -26t25.5 -58t-22 -58h100v-41h-173v27q22 4 33.5 21t11.5 39q0 24 -12.5 37t-31.5 17l-46 -29h-11l-45 29q-20 -2 -33 -14.5t-13 -39.5t13.5 -41.5t35.5 -14.5q6 0 11.5 1t10.5 3l7 -32
q-14 -7 -38 -7z" />
    <glyph glyph-name="maiCatawa-lao.narrow" 
d="M-352 637v76h-87v42h87v78h54v-78h87v-42h-87v-76h-54z" />
    <glyph glyph-name="karan-lao.narrow" 
d="M-396 630q-10 12 -16 29t-6 36q0 37 23.5 59t67.5 22h125v-46h-109q-25 0 -37 -12t-12 -32q0 -13 5 -25.5t13 -22.5z" />
    <glyph glyph-name="niggahita-lao.narrow" 
d="M-317 624q-47 0 -74.5 26t-27.5 70t27.5 70.5t74.5 26.5t75 -26.5t28 -70.5t-28 -70t-75 -26zM-317 663q29 0 44.5 15.5t15.5 41.5t-15.5 42t-43.5 16q-30 0 -45 -16t-15 -42t15 -41.5t44 -15.5z" />
    <glyph glyph-name="niggahita_maiEk-lao.narrow" 
d="M-317 624q-47 0 -74.5 26t-27.5 70t27.5 70.5t74.5 26.5t75 -26.5t28 -70.5t-28 -70t-75 -26zM-317 663q29 0 44.5 15.5t15.5 41.5t-15.5 42t-43.5 16q-30 0 -45 -16t-15 -42t15 -41.5t44 -15.5zM-342 889v149h51v-149h-51z" />
    <glyph glyph-name="niggahita_maiTho-lao.narrow" 
d="M-317 624q-47 0 -74.5 26t-27.5 70t27.5 70.5t74.5 26.5t75 -26.5t28 -70.5t-28 -70t-75 -26zM-317 663q29 0 44.5 15.5t15.5 41.5t-15.5 42t-43.5 16q-30 0 -45 -16t-15 -42t15 -41.5t44 -15.5zM-440 889v29q44 8 71 26t27 44q0 16 -12 24.5t-30 8.5q-22 0 -48 -13
l-12 34q33 18 74 18q35 0 56 -17t21 -45q0 -20 -11 -38t-28 -28h180v-43h-288z" />
    <glyph glyph-name="niggahita_maiTi-lao.narrow" 
d="M-317 624q-47 0 -74.5 26t-27.5 70t27.5 70.5t74.5 26.5t75 -26.5t28 -70.5t-28 -70t-75 -26zM-317 663q29 0 44.5 15.5t15.5 41.5t-15.5 42t-43.5 16q-30 0 -45 -16t-15 -42t15 -41.5t44 -15.5zM-387 884q-38 0 -57.5 24t-19.5 59q0 36 21 60t60 26l56 -35l54 35
q32 -4 55 -22t23 -52q0 -32 -16 -51h91v-39h-158v27q18 4 29 19t11 34q0 39 -34 47l-52 -32h-5l-54 32q-38 -6 -38 -48q0 -21 11 -34.5t32 -13.5q10 0 20 4l7 -32q-6 -3 -16 -5.5t-20 -2.5z" />
    <glyph glyph-name="niggahita_maiCatawa-lao.narrow" 
d="M-317 624q-47 0 -74.5 26t-27.5 70t27.5 70.5t74.5 26.5t75 -26.5t28 -70.5t-28 -70t-75 -26zM-317 663q29 0 44.5 15.5t15.5 41.5t-15.5 42t-43.5 16q-30 0 -45 -16t-15 -42t15 -41.5t44 -15.5zM-342 889v63h-76v42h76v62h50v-62h75v-42h-75v-63h-50z" />
    <glyph glyph-name="niggahita_maiEk-lao.right" 
d="M-143 624q-47 0 -74.5 26t-27.5 70t27.5 70.5t74.5 26.5t75 -26.5t28 -70.5t-28 -70t-75 -26zM-143 663q29 0 44.5 15.5t15.5 41.5t-15.5 42t-43.5 16q-30 0 -45 -16t-15 -42t15 -41.5t44 -15.5zM-168 889v149h51v-149h-51z" />
    <glyph glyph-name="niggahita_maiTho-lao.right" 
d="M-143 624q-47 0 -74.5 26t-27.5 70t27.5 70.5t74.5 26.5t75 -26.5t28 -70.5t-28 -70t-75 -26zM-143 663q29 0 44.5 15.5t15.5 41.5t-15.5 42t-43.5 16q-30 0 -45 -16t-15 -42t15 -41.5t44 -15.5zM-266 889v29q44 8 71 26t27 44q0 16 -12 24.5t-30 8.5q-22 0 -48 -13
l-12 34q33 18 74 18q35 0 56 -17t21 -45q0 -20 -11 -38t-28 -28h180v-43h-288z" />
    <glyph glyph-name="niggahita_maiTi-lao.right" 
d="M-143 624q-47 0 -74.5 26t-27.5 70t27.5 70.5t74.5 26.5t75 -26.5t28 -70.5t-28 -70t-75 -26zM-143 663q29 0 44.5 15.5t15.5 41.5t-15.5 42t-43.5 16q-30 0 -45 -16t-15 -42t15 -41.5t44 -15.5zM-213 884q-38 0 -57.5 24t-19.5 59q0 36 21 60t60 26l56 -35l54 35
q32 -4 55 -22t23 -52q0 -32 -16 -51h91v-39h-158v27q18 4 29 19t11 34q0 39 -34 47l-52 -32h-5l-54 32q-38 -6 -38 -48q0 -21 11 -34.5t32 -13.5q10 0 20 4l7 -32q-6 -3 -16 -5.5t-20 -2.5z" />
    <glyph glyph-name="niggahita_maiCatawa-lao.right" 
d="M-143 624q-47 0 -74.5 26t-27.5 70t27.5 70.5t74.5 26.5t75 -26.5t28 -70.5t-28 -70t-75 -26zM-143 663q29 0 44.5 15.5t15.5 41.5t-15.5 42t-43.5 16q-30 0 -45 -16t-15 -42t15 -41.5t44 -15.5zM-168 889v63h-76v42h76v62h50v-62h75v-42h-75v-63h-50z" />
    <glyph glyph-name="uVowel-lao.small" 
d="M-133 -381v101q0 28 -28 28q-16 0 -28 -6l-9 40q22 9 52 9q28 0 45 -14.5t17 -50.5v-107h-49z" />
    <glyph glyph-name="uuVowel-lao.small" 
d="M-194 -387q-107 0 -107 89v25q0 20 -19 20q-9 0 -18 -3l-6 42q22 5 40 5q54 0 54 -49v-37q0 -23 13.5 -36.5t44.5 -13.5q56 0 56 50v83h52v-82q0 -93 -110 -93z" />
    <glyph glyph-name="loVowel-lao.small" 
d="M-386 -320q-12 18 -12 45q0 32 21.5 49t60.5 17q31 0 57 -8.5t49.5 -17.5t49.5 -9q40 0 77 24v-48q-33 -22 -77 -22q-28 0 -52.5 9l-47 17.5t-46.5 8.5q-36 0 -36 -29q0 -9 2.5 -18.5t7.5 -17.5h-54z" />
    <glyph glyph-name="maiKanVowel-lao.center" 
d="M-376 642q-84 0 -84 68q0 32 12 52h50q-9 -18 -9 -38q0 -16 10 -26t34 -10h279v-46h-292z" />
    <glyph glyph-name="maiKonVowel-lao.center" 
d="M-448 637q-12 19 -12 51q0 68 84 68h292v-46h-279q-24 0 -34 -10t-10 -26q0 -19 9 -37h-50z" />
    <glyph glyph-name="uVowel-lao.narrow" 
d="M-244 -272v120q0 16 -7 22t-21 6q-7 0 -14.5 -1t-13.5 -3l-8 38q20 10 51 10q29 0 46 -15t17 -49v-128h-50z" />
    <glyph glyph-name="uuVowel-lao.narrow" 
d="M-305 -274q-110 0 -110 94v36q0 20 -19 20q-9 0 -18 -3l-6 41q20 6 40 6q54 0 54 -50v-47q0 -55 60 -55q32 0 45 14.5t13 40.5v94h52v-93q0 -47 -27.5 -72.5t-83.5 -25.5z" />
    <glyph glyph-name="loVowel-lao.narrow" 
d="M-492 -191q-12 22 -12 45q0 25 19.5 45.5t64.5 20.5q31 0 55 -8.5l47.5 -17t50.5 -8.5q17 0 34.5 4.5t38.5 17.5v-46q-21 -14 -39.5 -18.5t-34.5 -4.5q-30 0 -53 8.5t-44.5 17.5t-46.5 9q-20 0 -28.5 -7.5t-8.5 -20.5q0 -19 9 -37h-52z" />
    <glyph glyph-name="niggahita-lao.right" 
d="M-144 624q-46 0 -74 26t-28 70t28 70.5t74 26.5q47 0 75.5 -26.5t28.5 -70.5t-28 -70t-76 -26zM-144 663q30 0 45 15.5t15 41.5t-15 42t-44 16t-44.5 -16t-15.5 -42t15.5 -41.5t43.5 -15.5z" />
    <glyph glyph-name="uni00A0" unicode="&#xa0;" horiz-adv-x="260" 
 />
    <glyph glyph-name="uni200B" unicode="&#x200b;" 
 />
    <glyph glyph-name="uni200C" unicode="&#x200c;" 
d="M-21 -133v761h42v-761h-42z" />
    <glyph glyph-name="uni200D" unicode="&#x200d;" 
d="M-21 -133v668l-62 -62l-26 27l82 82l-82 81l26 27l83 -83l83 83l26 -27l-82 -81l82 -82l-26 -27l-62 62v-668h-42z" />
    <glyph glyph-name="dottedCircle" unicode="&#x25cc;" horiz-adv-x="594" 
d="M297 487q-11 0 -18.5 7.5t-7.5 19.5q0 11 7.5 18.5t18.5 7.5t18.5 -7.5t7.5 -18.5q0 -12 -7.5 -19.5t-18.5 -7.5zM383 470q-12 0 -20 7.5t-8 18.5q0 12 8 19.5t20 7.5q25 0 25 -27q0 -11 -7 -18.5t-18 -7.5zM212 470q-11 0 -18.5 7.5t-7.5 18.5q0 12 7.5 19.5t18.5 7.5
q12 0 19.5 -7.5t7.5 -19.5q0 -11 -7.5 -18.5t-19.5 -7.5zM140 422q-11 0 -18.5 7t-7.5 18q0 12 7.5 20t18.5 8q12 0 19.5 -7.5t7.5 -19.5q0 -11 -7.5 -18.5t-19.5 -7.5zM455 422q-12 0 -19.5 7.5t-7.5 18.5q0 12 7.5 19.5t19.5 7.5q25 0 25 -27q0 -11 -7 -18.5t-18 -7.5z
M93 349q-12 0 -20 7.5t-8 19.5q0 11 7.5 18.5t19.5 7.5q11 0 18.5 -7.5t7.5 -18.5q0 -27 -25 -27zM502 349q-11 0 -18.5 7.5t-7.5 19.5q0 11 7.5 18.5t19.5 7.5q11 0 18.5 -7.5t7.5 -18.5q0 -12 -7.5 -19.5t-19.5 -7.5zM75 265q-12 0 -19.5 7.5t-7.5 18.5t7.5 18.5t19.5 7.5
q11 0 18.5 -7.5t7.5 -18.5t-7.5 -18.5t-18.5 -7.5zM521 265q-12 0 -19.5 7.5t-7.5 18.5t7.5 18.5t19.5 7.5q11 0 18 -7.5t7 -18.5t-7 -18.5t-18 -7.5zM92 180q-12 0 -19.5 7.5t-7.5 18.5q0 12 7.5 19.5t19.5 7.5q11 0 18.5 -7.5t7.5 -19.5q0 -11 -7.5 -18.5t-18.5 -7.5z
M502 180q-11 0 -18.5 7.5t-7.5 18.5q0 12 7.5 19.5t18.5 7.5q12 0 19.5 -7.5t7.5 -19.5q0 -11 -7.5 -18.5t-19.5 -7.5zM140 107q-11 0 -18.5 7.5t-7.5 18.5q0 12 7.5 19.5t18.5 7.5q12 0 19.5 -7.5t7.5 -19.5q0 -11 -7.5 -18.5t-19.5 -7.5zM455 107q-12 0 -19.5 7.5
t-7.5 18.5q0 12 7.5 19.5t19.5 7.5q25 0 25 -27q0 -11 -7 -18.5t-18 -7.5zM212 60q-11 0 -18.5 7t-7.5 18q0 12 7.5 19.5t18.5 7.5q27 0 27 -25q0 -12 -7.5 -19.5t-19.5 -7.5zM383 60q-12 0 -20 7t-8 18q0 12 8 19.5t20 7.5q25 0 25 -27q0 -25 -25 -25zM297 42
q-11 0 -18.5 7.5t-7.5 19.5q0 11 7.5 18.5t18.5 7.5t18.5 -7.5t7.5 -18.5q0 -12 -7.5 -19.5t-18.5 -7.5z" />
  </font>
</defs>
</svg>
